<?xml version="1.0" encoding="UTF-8"?>
<svg id="b" data-name="Layer 2" xmlns="http://www.w3.org/2000/svg" xmlns:xlink="http://www.w3.org/1999/xlink" viewBox="0 0 46.75 78.39">
  <defs>
    <style>
      .f, .g {
        fill: none;
      }

      .g {
        stroke: #000;
        stroke-linecap: round;
        stroke-linejoin: round;
        stroke-width: 17.36px;
      }

      .h {
        clip-path: url(#e);
      }
    </style>
    <clipPath id="e">
      <path class="f" d="M21.24,3.2c0-.51-.1-.41,0-.82-1.34-.82-2.37-2.88-4.22-2.26-.82,0-1.54.82-2.16,1.23.1,0,.21,0,.21.21h-.21c0,.1,0,.21-.1.21q0,.1-.1.1c-.41.82-1.13,3.19-1.65,2.88h-.1c-.31.72.1.93-.31,1.54,0-.1,0-.31-.1-.31-.1.1-.41.51-.1.62,0-.21.1-.21.21-.21-.41.93-.31,2.47-1.23,2.98,0-.1.21-.41,0-.41-.31,1.44-1.23,2.67-.82,4.01-.1.31-.21.72-.51.82.21-.1.21.51,0,.41,0,.1-.21.1,0,0,0-.1-.1-.1-.21-.1-.21.51.1.41.21.93-.21,1.03-1.34,1.75-.93,2.67-.51.31,0,.82-.51,1.34-.62,3.91-1.13,7.92-.82,12.14.41.21,0,1.13.51,1.44-.51.41.62,1.03.31,1.54,1.23,1.44,3.29,2.78,5.25,2.47.31.31.82.21,1.44.41-1.65,2.06-3.29,4.32-4.83,6.48,0,.21.21.21.1.51-.1,0-.21-.1-.31-.1-2.06,2.88-3.7,5.97-5.25,8.64,0,.21.1.21.1.41-1.13.62-1.13,1.75-1.85,2.78,0,.21.1.21.1.41-1.23,2.67-2.78,6.07-2.88,9.57-.31.21-.21.21,0,.41h-.21c-.41.72.51,2.06-.21,1.65-.1.31-.1.82.41.93,0-.31-.1-.72.21-.72-.1.21.21.1.21.31.31,0-.1-.72.21-.72.1-.21-.31-.31,0-.41.21-.1.21.51,0,.41,0,1.44.51,3.29.31,4.32-.21-.21,0-.93-.41-.93-.21.62.21,1.13,0,1.54-.1-.1-.1-.21-.31-.21,0,.21.21.51-.21.41.31.82.72,1.34,1.34,1.85.1-.31-.51-.51-.1-.82.72,1.13,1.75,1.95,2.26,3.29.31.1.82,0,1.03.21,0,.1-.41.31-.1.41.31,0,1.65-.1,1.95.21,0-.1.1-.1.1,0,.31-.1-.1.51.21.41,0-.21.62-.21.51.1,1.44-.1,2.37-.31,3.81-.41.51-.62,2.06-.72,2.67-1.65-.1,0-.1-.21-.1-.31.31-.1.41-.41.82-.51,0-.1.1-.1,0,0,0,.1,0,.21.1.21.21-.21.93-.41.62-.82,0,.1-.31.41-.31.21.21-.31.41-.41.62-.72v.31c1.13-1.13,2.06-2.57,2.98-4.01,0-.21-.1-.21-.1-.41,1.23-1.34,1.95-3.09,2.67-5.14-.1,0-.1-.1,0,0,.51-.21.31-.82.51-1.23,0-.1.31,0,.31-.1.1-.21.31-.72.41-1.13.41-1.13,1.03-2.16.93-3.19.21,0,.21-.1.31-.1-.31-.41.21-.82,0-1.13-.31.31-.41.62-.62,1.03.21-.41-.31-.1-.31-.31.41-.21.51-.31.1-.41.1-.82.41-.72.72-1.03,0,.21.1.21.21.31-.21-.1-.41.51-.1.41.82-1.13,1.23-2.26,1.34-3.7-.1-.21-.31-.31,0-.41.21.41.21-.93.51-1.03,0-.1.1-.1.21-.1-.21-.93.51-1.13.41-1.85.21-1.65,1.13-3.09,1.13-4.94.41.1.41-.72.31-1.03,0,.21,0,.31-.21.31.1-.51.41-.82.62-1.13-.31-.62.51-1.23.1-1.65.93-2.26,1.13-5.76,1.95-8.13h.31c.1-1.44.72-2.47.41-3.39,0,.1,0,.21-.1.21-.1-.31-.21-.72.31-.82v-.21c-.31,0-.1-.72,0-.93.1,0,0,.31.21.31.31-.41-.31-.82-.1-1.03.1,0,.21.21.31.21.21-1.03.62-1.75.41-2.67,0,.21,0,.41-.31.41-.1-.41.41-.62.21-1.13.21,0,.41-.1.51-.31,0-.31.1-1.13.41-1.65v-.1c-.1,0-.1-.1,0-.1v.1c.31-.21.1-.31,0-.31.1-.62.21-1.44,1.03-1.23-.31-.51.51-.51.41-1.13.31.1.31-.21.51-.21,0-.1.1-.1.21-.1-.1-.1,0-.21,0-.31.1.1.21.1.41.1.1-.1,0-.62.31-.31-.1-.72.51-.72.62-1.23.21.1.72-.31.93-.62-.1,0-.1-.21-.1-.31.1,0,.21,0,.21.1h.21c.1-.21-.21-.1-.21-.31.31.1.21-.21.41-.21,0,.1,0,.21.1.21.1-.1.31-.21.41-.41-.1,0-.21,0-.21-.1-.1,0-.1-.1,0,0,.1-.1.21-.1.41,0v-.41c-.1,0-.1-.1,0-.1,0-.1.1-.1.1,0,.1-.21.62.21.62-.31,0-.31-.31.31-.31-.1.21-.1.31-.21.51-.31v-.31c-.1,0-.21.21-.21,0,0-.31.21-.31.31-.51,0-.1.1-.1,0,0,.21.21,0,.1,0,.41h.1c.1-.41.31.41.41,0-.1,0-.1-.1,0,0,.1,0,.31,0,.31-.1-.1-.1-.31-.1-.31-.21.1,0,.21,0,.21-.1-.1,0-.1-.1,0,0,.1,0,0-.31.21-.31,0,.1.21.1.21.21.21,0,0-.51.31-.21,0-.21-.1-.62.21-.51-.21-.21.31-.41.21-.93h.21c.1-.31.31.1.51,0,0-.1.1-.21.1-.31-.1,0-.21,0-.21-.21.1,0,.21-.21.31-.21,0,.21-.1.21-.1.41.21-.1.21-.21.41,0,.31-.21-.31-.31,0-.51.21,0,.1.31.31.31,0-.21-.1-.21-.1-.31.21,0,.21-.1.31-.1.1.21-.31.31.1.31v-.41c-.1,0-.31,0-.31-.1-.1,0-.1-.1,0-.1q0-.1.1-.1c0-.1,0-.31.1-.31.1.1.1.21-.1.31v.1h.21c.21-.31.51-.62.72-1.23-.41,0-.21.51-.62.41-.1,0-.1-.21-.1-.31-.31,0-.21.51-.51.51.31,0,.21.41,0,.51,0,.1-.21.1,0,0-.21-.1,0-.51-.31-.41,0,.21-.1.21-.1.31.31-.1.1.21,0,.21s-.1-.1,0-.21c-.1,0-.1-.1-.21-.1-.21.72-.62.51-.82,1.23,0-.41-.1,0-.31-.1v.21c.1,0,.1.1,0,.1v-.1c-.21,0-.31-.1-.41-.21.1,0,.21-.1.31-.1v-.21q-.1,0-.1-.1c-.1,0-.1-.1,0-.1v.1q.1,0,.1.1c.93,0,1.03-1.44,2.06-1.65-.1-.21-.21.1-.31-.1.31-.41.82-.51,1.34-.93-.21,0-.41-.21-.41-.41.31-.21.21.21.51-.1,0,.21,0,.31.21.31,0-.51.21-.51.1-.93.31,0,.21.21.41,0,0-.31-.1-.41-.31-.51,0,.21-.1.31-.21.31,0-.1,0-.21-.1-.21-.21.21-.31.31-.41.51.21,0,.21.1.1.21-.1,0-.1-.1-.1-.21-.41.31-.41.62-.93.51,0,.31,0,.62-.31.51,0,.1,0,.21-.1.21.21.41-.51.31-.72.31-.21.82-1.13.72-1.54,1.65.1,0,.1.1,0,.1,0,.1-.21.1,0,0v-.1c-.62.51-1.03,1.03-1.75,1.54-.1.41-.31-.1-.41.31.31,0-.1.41,0,0h-.1c0,.41-.31.31-.1.62-.72,0-.82.62-1.13.72.1,0,.1.21,0,.21v-.21c-.93.72-1.85,1.85-2.78,2.78,0-1.03.41-2.88.72-3.81.1-.62-.1-1.34.51-1.23.21-.41-.31-.1-.31-.31.1-.21.31.21.31-.21-.1,0-.21-.1-.21-.21.1,0,.1-.21.21-.21.31-.31.31-.72.1-1.13.31.1.21-.21.31-.31-.41-.21-.1-.72.1-.93-.41,0-.21-.72.21-.62-.21-.62.21-.62,0-1.34.62-.1.21-1.54,1.03-1.75-.1-.51.31-1.23,0-1.65-.21,0-.31.21-.31,0-.1-.72-.62-.62-1.03-1.23-1.34-.1-2.37-1.03-3.39-1.34-.31.21-.41.31-.93.21-.1.31-.51.41-.72.62-.1,2.37-1.13,4.53-1.95,6.58-.21,1.75-1.13,3.6-2.06,4.94-.21,1.23-.62,1.65-.93,2.26-.41-.1-.1-.31-.1-.62-.21.1-.31.31-.31.72-3.6,5.35-5.76,12.03-11.42,15.33-.62-3.6-.62-6.07.21-8.74-.21,0-.31-.1-.31-.21.31-1.03.21-1.85.72-2.67-.31-.31.1-.62,0-1.34.1,0,.21.21.31.21,0-.82,0-2.47.62-2.88-.31-1.03.41-1.34.31-2.16.31,0,.21.21.41,0-.1-.31-.21-.21-.21-.62.1,0,.31,0,.31-.1-.41-.1-.21-.82.31-.72-.21-.72.21-1.23.62-2.06,0-.1-.21-.1-.21-.21,0-.21.31-.21.31-.41-.1,0-.1-.1,0-.1v.1c.62-1.03,1.23-2.06,1.34-3.39.1.1.21.1.31.1,0-.41.1-.31-.1-.51,1.03-.82,1.75-2.06,2.57-2.88ZM41.81,12.97c0,.1-.1.1-.21.1,0-.1.1-.1.21-.1ZM40.48,13.07c0,.1-.1.1-.21.1,0-.1.1-.1.21-.1ZM40.37,13.9c-.41-.1-.1-.31,0-.51.31.1-.1.31,0,.51ZM40.99,13.49c0,.21-.31.21-.41.1,0-.1.21-.1.41-.1ZM38.52,15.23c.1-.41.41-.51.41-.82.1,0,.1.1.21.1,0-.1.1-.1,0,0,0,.1-.1.21-.1.41-.31,0-.31.21-.41.31.1,0,.1.21,0,0h-.1c-.1.21-.1.41-.41.31,0-.41-.1-.31,0-.62.21,0,0,.51.41.31ZM39.35,15.03c0,.1-.1.1-.21.1,0-.1.1-.1.21-.1ZM36.77,16.57c0,.21-.1,0-.21,0,0-.1.21-.1.21,0ZM37.91,16.67c0-.1.1-.1,0,0,.1.41-.31,0,0,0ZM36.36,17.29v-.51c.21.21.21-.1.41.1-.21.1-.1.41-.41.41ZM36.16,17.29c0-.1.1-.1,0,0q0,.1-.1.1c0,.1-.21.1,0,0q0-.1.1-.1ZM36.57,17.6c-.1-.51.51.1,0,0,0,.1-.21.1,0,0ZM33.69,17.81c0,.21-.1,0-.21,0,0-.1.21-.1.21,0ZM35.64,17.81c0-.1.1-.1,0,0v.41c-.1,0-.21,0-.21.1-.21-.1,0-.51.21-.51ZM35.03,18.53v-.21h.21v.21h-.21ZM33.79,19.86c0,.21-.1,0-.21,0,0-.1.21-.1.21,0ZM33.48,21.51c.1.21-.41.21-.31,0,0-.1.31-.1.31,0ZM31.53,26.03c-.1,0-.1-.21-.1-.31.21,0,.21.1.21.21q-.1,0-.1.1ZM30.5,30.15c0-.1.1-.1.1-.21.21.1.1.51-.1.21ZM30.29,32.62c-.31,0,0-.31,0-.41.21,0,0,.31,0,.41ZM23.51,36.11h.31c-.62,3.91-1.75,7.2-2.57,11.01-.31,1.34-.72,3.19-1.13,4.42-.51,1.44-.82,2.88-1.23,4.32-.21.62-.62,1.03-.82,1.65-.62,1.65-.82,3.39-1.85,4.83-.41,2.06-1.54,3.39-2.16,5.14-1.95,3.09-3.19,6.27-6.69,8.02-1.44-2.57-2.06-5.97-1.13-9.26-.1-2.57,1.65-4.22,1.65-6.27.72-.62.72-2.06,1.65-2.57,0-1.03.82-1.23.72-2.26.82-.72,1.54-1.95,1.75-2.98,1.44-1.44,1.85-3.39,3.39-4.73.1-.72.62-.93.72-1.65,1.54-1.03,1.95-3.29,3.6-4.32.93-1.85,2.16-3.09,3.39-4.42,0-.41.21-.72.41-.93ZM15.28,40.95c-.1,0-.1-.21-.1-.31.21,0,.21.1.21.21q-.1,0-.1.1ZM27.72,41.46v-.21h.21v.21h-.21ZM12.71,43.11c0-.1.1-.1,0,0,0,.31-.41-.1,0,0ZM12.09,44.14c0,.1-.1.1-.21.1,0-.1.1-.1.21-.1ZM12.4,44.86c-.1-.31.31-.21.21-.51.31.1,0,.51-.21.51ZM10.24,44.45c0,.1-.1.1-.21.1,0-.1.1-.1.21-.1ZM10.96,44.65c0,.1-.1.1-.21.1,0-.1.1-.1.21-.1ZM12.29,44.65c0,.1-.1.1-.21.1,0-.1.1-.1.21-.1ZM12.09,45.47c-.21,0-.21-.21-.21-.41.1.1.21.1.21,0,.21,0,0,.31,0,.41ZM15.89,45.58c0,.21-.1,0-.21,0,0-.1.21-.1.21,0ZM27.31,45.68c0,.21-.31.21-.41.1,0-.1.21-.1.41-.1ZM9.11,47.43c0-.1,0-.21.21-.21v.21h-.21c0,.1-.1.21-.1.31-.21,0-.1-.21,0-.31h.1ZM10.34,47.33c0,.1-.1.1-.21.1,0-.1.1-.1.21-.1ZM9.72,48.77c0,.21-.51.21-.31-.1.21,0,.21.1.31.1ZM9.21,49.38c-.1,0-.1-.1,0,0,.1,0,.21,0,.21-.1.31.1-.21.51-.21.1ZM10.44,50.21c0-.1.1-.1,0,0,0,.1-.21.1,0,0ZM7.05,51.23c-.1,0-.1-.21-.1-.41.41,0,0,.21.1.41ZM6.53,51.85c-.21,0-.21-.31-.1-.41.21,0,.21.31.1.41ZM7.97,51.65c.21-.31.31.31,0,0,0,.1-.21.1,0,0ZM8.49,51.95c0-.1.1-.1,0,0,0,.1-.21.1,0,0ZM5.92,52.88c-.1-.1-.1-.21,0-.41.21,0,.21.31.1.41h-.1c0,.1-.1.21-.1.31-.21,0-.1-.21,0-.31h.1ZM6.74,52.98c.21,0,.21-.1.41-.1-.21.21-.21.51-.51.51.1-.1.1-.21.1-.41ZM24.74,54.53c-.21,0-.1.31-.41.21,0-.62.21-1.13.62-1.54,0,.51,0,.93-.21,1.34.1,0,.1.21,0,0ZM5.4,54.11c-.21-.1,0-.62.1-.82.31.21.1.21.31.51-.31,0-.21.21-.41.31ZM6.95,53.6c0-.1.1-.1,0,0,0,.1-.21.1,0,0ZM6.53,53.7q.1,0,.1-.1c.21,0,.1.51-.1.31v-.21ZM6.02,54.01c-.21-.1,0-.21,0-.31.21.1,0,.21,0,.31ZM6.53,54.53c-.1-.41.31,0,0,0,0,.1-.21.1,0,0ZM4.68,55.04c0-.1.1-.1,0,0,0,.21,0,.41-.1.51-.21,0-.1-.41,0-.51h.1ZM5.2,56.17c.21-.1.31-.41.51-.62.1.1-.1.72-.51.62ZM4.27,56.07c-.21-.1-.1-.51.21-.41.1.31-.21.21-.21.41ZM4.68,55.97c0-.1.21-.21.21-.31.21,0,0,.41-.21.31ZM3.55,57.51c.1-.51.31-.93.51-1.34.1.31-.21,1.13-.51,1.34,0,.1-.21.1,0,0ZM4.99,57.2c-.31-.1-.1-.31,0-.51.31.1-.1.31,0,.51ZM24.12,56.69c.21.21-.41.51-.31.1,0,0,.21-.21.31-.1ZM4.58,58.13c-.21-.1-.21-.21-.1-.31h.21c-.1.1-.1.21-.1.31ZM3.24,58.64c-.31-.1.1-.21,0-.51.41,0,0,.41,0,.51ZM2.73,58.95c.21,0,.21-.1.41-.1-.21.31-.1.31-.31.62-.21-.1.1-.21-.1-.51ZM4.37,59.15c-.31,0,0-.41.21-.31.1.21-.21.1-.21.31ZM2.93,60.08c0-.41.31-.51.62-.62,0,.41-.31.51-.62.62ZM2.73,59.67c0-.1.1-.1,0,0,0,.1,0,.31-.1.31,0,.41-.41,0,0,0,0-.1,0-.21-.1-.21,0-.1.1-.1.21-.1ZM22.79,60.59c-.21,0-.21-.21-.21-.51.1.1.21.31.21.51ZM22.37,61.11c-.1.1-.21.21-.21.41-.31-.1,0-.51.1-.62.1,0,.1.1.1.21.21,0,.1-.31.31-.21-.21.31.1.72-.41.82,0,.21.21.51-.21.41,0,.21,0,.41-.21.31v-.31h.21c0-.51.31-.51.31-1.03ZM2.32,61.52c-.21-.1-.31-.31-.1-.51.21.1.31.41.1.51ZM4.37,61.01c0,.1-.1.1-.21.1,0-.1.1-.1.21-.1ZM2.21,61.83c.1-.21.21-.51.51-.62.1.31-.31.41.1.41-.41.31-.31,1.03-.51,1.54-.51-.31.21-.51,0-1.13-.31-.1-.21.21-.41.21q.21.31.1.72c-.31-.1-.1-.31-.21-.72h.1v-.51c.1,0,.21.1.31.1ZM4.07,61.73c0,.1-.1.1-.21.1,0-.1.1-.1.21-.1ZM3.76,62.45c-.21.1-.21-.1-.21-.31.1,0,.21.1.21.31ZM3.04,62.55c0-.1.1-.21.31-.21,0,.1-.1.21-.31.21ZM21.55,63.78c-.21-.1-.1-.62.21-.51,0,.31-.21.31-.21.51ZM1.08,65.94c.1-.72.31-1.65.51-2.37.1,1.23-.51,1.95-.41,3.39-.41-.21-.1-.72-.1-1.03-.1,0-.1-.1,0,0ZM1.8,64.5c0-.31,0-.41.31-.41,0,.21,0,.41-.31.41ZM3.14,65.12c-.41.1,0-.21-.1-.51.1-.31.21.62.1.51ZM1.7,65.33c-.1-.31.1-.41.1-.62.1,0,.21.72-.1.62ZM20.52,65.84c0-.1-.1-.21-.1-.41.1,0,.1.1.1.21.21-.21.21-.31.1-.62.1,0,.1.1.31.1,0-.1.1-.1,0,0,.1.41-.21.62-.41.72.1.41-.31,0,0,0ZM.67,66.46c-.41,0,.1-.72-.1-1.13.31.1.21,1.03.1,1.13ZM2.93,65.63c-.21-.1,0-.21,0-.31.21.1,0,.21,0,.31ZM1.7,65.63c0-.21.1-.21.1,0,.1,0,.1.21,0,0h-.1c0,.21.1.31,0,.31,0,.1.1.1.21.1,0,.1-.21.1-.31.1,0,.1.21.1.31.1-.1.72-.31,1.44,0,1.95-.31-.1-.21.93,0,1.23.1,0,.1.21,0,0-.1.72-.1,1.44,0,2.16-.72-1.75-.62-3.91-.31-5.45,0-.1-.1-.51.1-.51ZM.67,67.38c-.41.1-.1-.82.1-.41,0,.1-.1.1-.21.1,0,.1.1.21.1.31ZM2.21,67.69c-.1,0-.21-.1-.21-.31.1,0,.21.1.21.31ZM.47,67.9v-.21h.21v.21h-.21ZM2.52,69.34c-.41-.1.1-.62-.21-.82.31-.41.21.62.21.82ZM19.08,68.72v-.21h.21v.21h-.21ZM14.87,1.35h-.1c0,.21-.62.51-.1.51q0-.1.1-.1c0-.1,0-.21.1-.21v-.21ZM13.43,3.92h-.1c0,.41-.41.41-.31.82.21-.21.41-.41.41-.82ZM12.5,5.87c-.1,0-.1.1,0,.1v-.1ZM46.55,6.7q.1,0,.1-.1t-.1.1ZM46.55,6.7c-.21,0-.21.1-.21.21.1,0,.21-.1.21-.21ZM46.13,7.01c.1,0,.21,0,.21-.1-.1,0-.21,0-.21.1ZM45.62,7.11c.1,0,.21,0,.21-.1-.1,0-.21,0-.21.1ZM46.03,7.11h.1v-.1q-.1,0-.1.1ZM46.03,7.11h-.1c.1.21-.21.1-.21.31.31.1.82-.31.41-.31,0,.1-.1.1-.1,0ZM11.88,7.73c.1-.1.1-.21.21-.31-.21,0-.21.1-.21.31ZM45.83,7.93v-.1c-.1-.1-.21-.21-.21-.31-.31,0-.31.21-.51,0,0,.31.21.41-.21.41,0,.1,0,.31.1.31-.1-.51.31.1.31-.21-.1,0-.1-.1,0,0,.1,0,.1.1.21.1-.1-.21.1-.21.31-.21ZM46.03,7.83c-.1,0-.1.1-.21.1,0,.1,0,.31.1.31,0-.21.1-.21.1-.41ZM46.55,8.34c.1,0,.21.21.21,0,0-.1-.21-.1-.21,0ZM46.24,8.86c.21.1.41.31.51,0-.31,0-.21-.41-.62-.31v.21q.1,0,.1.1ZM46.13,8.75c-.1.1-.21.1-.31.1,0,.51.31.21.41,0q-.1,0-.1-.1ZM45.21,9.17c-.21-.1-.51.31-.21.31,0-.1.21-.21.21-.31ZM45.83,9.58c0-.21,0-.41-.31-.41.1.21.1.72.31.41ZM45.31,9.68c-.31,0-.72.21-.82.62.31.1.1-.31.41-.21,0,.1.1.21.1.31-.21,0-.31.1-.31.31.21.21.1,0,.41,0,.1-.41-.1-.72.21-1.03ZM44.08,10.4c0,.21,0,.41.1.41,0-.1.41-.31.1-.41,0,.1-.1.1-.21,0ZM43.56,10.61c0,.1-.21.21,0,.31,0-.1.21-.21,0-.31ZM42.95,12.15q.1,0,.1-.1h-.1v.1ZM26.49,13.07c.1,0,.21,0,.21-.1-.1,0-.21,0-.21.1ZM25.46,15.75c.41-.72.82-1.44,1.03-2.47-.41.62-.72,1.44-1.03,2.47ZM34.61,14.21c0,.21-.1.41.1.41-.1-.31.31-.41-.1-.41ZM41.2,14.31c.1,0,.1-.1,0-.1v.1ZM39.45,15.54q.1,0,.1-.1-.1,0-.1.1ZM15.17,16.26c0,.1-.21.21,0,.31,0-.1.21-.21,0-.31ZM39.65,16.47h.1c0-.1-.1-.1-.1,0ZM38.52,16.67q.1,0,.1-.1h-.1v.1ZM39.35,17.09c.1,0,.21,0,.21-.1-.1,0-.21,0-.21.1ZM38.52,17.5c.1,0,.1-.1,0-.1v.1ZM38.52,17.5c-.21.1-.62.41-.21.51,0-.21.21-.21.21-.51ZM37.39,17.91c-.1,0-.1.1-.1.21.1,0,.1-.1.1-.21ZM37.39,18.42c0,.31-.31.31-.31.51.31.1.62-.31.31-.51ZM36.77,19.25c-.1,0-.1-.1-.21-.1-.1.41.21.41.21.1ZM35.44,20.27c0,.1,0,.31.1.31.1-.1.1-.21-.1-.31ZM35.03,20.48c0,.21.1.21.21.21,0-.1-.1-.21-.21-.21ZM33.28,23.05h.1c0-.21.21-.21.21-.51-.31,0-.31.21-.31.51ZM2.21,61.83c.1,0,.21-.21.21.1-.1,0-.21,0-.21-.1ZM.88,68.31h-.1c-.21.21,0,.51.21.62.1-.31-.21-.31-.1-.62ZM.57,71.81c0,.21-.1.51.21.41,0-.21,0-.41-.21-.41ZM6.84,77.87c0,.1.1.1.1,0h-.1Z"/>
    </clipPath>
  </defs>
  <g id="c" data-name="Layer 1">
    <g id="d" data-name="y">
      <path d="M21.24,3.2c0-.51-.1-.41,0-.82-1.34-.82-2.37-2.88-4.22-2.26-.82,0-1.54.82-2.16,1.23.1,0,.21,0,.21.21h-.21c0,.1,0,.21-.1.21q0,.1-.1.1c-.41.82-1.13,3.19-1.65,2.88h-.1c-.31.72.1.93-.31,1.54,0-.1,0-.31-.1-.31-.1.1-.41.51-.1.62,0-.21.1-.21.21-.21-.41.93-.31,2.47-1.23,2.98,0-.1.21-.41,0-.41-.31,1.44-1.23,2.67-.82,4.01-.1.31-.21.72-.51.82.21-.1.21.51,0,.41,0,.1-.21.1,0,0,0-.1-.1-.1-.21-.1-.21.51.1.41.21.93-.21,1.03-1.34,1.75-.93,2.67-.51.31,0,.82-.51,1.34-.62,3.91-1.13,7.92-.82,12.14.41.21,0,1.13.51,1.44-.51.41.62,1.03.31,1.54,1.23,1.44,3.29,2.78,5.25,2.47.31.31.82.21,1.44.41-1.65,2.06-3.29,4.32-4.83,6.48,0,.21.21.21.1.51-.1,0-.21-.1-.31-.1-2.06,2.88-3.7,5.97-5.25,8.64,0,.21.1.21.1.41-1.13.62-1.13,1.75-1.85,2.78,0,.21.1.21.1.41-1.23,2.67-2.78,6.07-2.88,9.57-.31.21-.21.21,0,.41h-.21c-.41.72.51,2.06-.21,1.65-.1.31-.1.82.41.93,0-.31-.1-.72.21-.72-.1.21.21.1.21.31.31,0-.1-.72.21-.72.1-.21-.31-.31,0-.41.21-.1.21.51,0,.41,0,1.44.51,3.29.31,4.32-.21-.21,0-.93-.41-.93-.21.62.21,1.13,0,1.54-.1-.1-.1-.21-.31-.21,0,.21.21.51-.21.41.31.82.72,1.34,1.34,1.85.1-.31-.51-.51-.1-.82.72,1.13,1.75,1.95,2.26,3.29.31.1.82,0,1.03.21,0,.1-.41.31-.1.41.31,0,1.65-.1,1.95.21,0-.1.1-.1.1,0,.31-.1-.1.51.21.41,0-.21.62-.21.51.1,1.44-.1,2.37-.31,3.81-.41.51-.62,2.06-.72,2.67-1.65-.1,0-.1-.21-.1-.31.31-.1.41-.41.82-.51,0-.1.1-.1,0,0,0,.1,0,.21.1.21.21-.21.93-.41.62-.82,0,.1-.31.41-.31.21.21-.31.41-.41.62-.72v.31c1.13-1.13,2.06-2.57,2.98-4.01,0-.21-.1-.21-.1-.41,1.23-1.34,1.95-3.09,2.67-5.14-.1,0-.1-.1,0,0,.51-.21.31-.82.51-1.23,0-.1.31,0,.31-.1.1-.21.31-.72.41-1.13.41-1.13,1.03-2.16.93-3.19.21,0,.21-.1.31-.1-.31-.41.21-.82,0-1.13-.31.31-.41.62-.62,1.03.21-.41-.31-.1-.31-.31.41-.21.51-.31.1-.41.1-.82.41-.72.72-1.03,0,.21.1.21.21.31-.21-.1-.41.51-.1.41.82-1.13,1.23-2.26,1.34-3.7-.1-.21-.31-.31,0-.41.21.41.21-.93.51-1.03,0-.1.1-.1.21-.1-.21-.93.51-1.13.41-1.85.21-1.65,1.13-3.09,1.13-4.94.41.1.41-.72.31-1.03,0,.21,0,.31-.21.31.1-.51.41-.82.62-1.13-.31-.62.51-1.23.1-1.65.93-2.26,1.13-5.76,1.95-8.13h.31c.1-1.44.72-2.47.41-3.39,0,.1,0,.21-.1.21-.1-.31-.21-.72.31-.82v-.21c-.31,0-.1-.72,0-.93.1,0,0,.31.21.31.31-.41-.31-.82-.1-1.03.1,0,.21.21.31.21.21-1.03.62-1.75.41-2.67,0,.21,0,.41-.31.41-.1-.41.41-.62.21-1.13.21,0,.41-.1.51-.31,0-.31.1-1.13.41-1.65v-.1c-.1,0-.1-.1,0-.1v.1c.31-.21.1-.31,0-.31.1-.62.21-1.44,1.03-1.23-.31-.51.51-.51.41-1.13.31.1.31-.21.51-.21,0-.1.1-.1.21-.1-.1-.1,0-.21,0-.31.1.1.21.1.41.1.1-.1,0-.62.31-.31-.1-.72.51-.72.62-1.23.21.1.72-.31.93-.62-.1,0-.1-.21-.1-.31.1,0,.21,0,.21.1h.21c.1-.21-.21-.1-.21-.31.31.1.21-.21.41-.21,0,.1,0,.21.1.21.1-.1.31-.21.41-.41-.1,0-.21,0-.21-.1-.1,0-.1-.1,0,0,.1-.1.21-.1.41,0v-.41c-.1,0-.1-.1,0-.1,0-.1.1-.1.1,0,.1-.21.62.21.62-.31,0-.31-.31.31-.31-.1.21-.1.31-.21.51-.31v-.31c-.1,0-.21.21-.21,0,0-.31.21-.31.31-.51,0-.1.1-.1,0,0,.21.21,0,.1,0,.41h.1c.1-.41.31.41.41,0-.1,0-.1-.1,0,0,.1,0,.31,0,.31-.1-.1-.1-.31-.1-.31-.21.1,0,.21,0,.21-.1-.1,0-.1-.1,0,0,.1,0,0-.31.21-.31,0,.1.21.1.21.21.21,0,0-.51.31-.21,0-.21-.1-.62.21-.51-.21-.21.31-.41.21-.93h.21c.1-.31.31.1.51,0,0-.1.1-.21.1-.31-.1,0-.21,0-.21-.21.1,0,.21-.21.31-.21,0,.21-.1.21-.1.41.21-.1.21-.21.41,0,.31-.21-.31-.31,0-.51.21,0,.1.31.31.31,0-.21-.1-.21-.1-.31.21,0,.21-.1.31-.1.1.21-.31.31.1.31v-.41c-.1,0-.31,0-.31-.1-.1,0-.1-.1,0-.1q0-.1.1-.1c0-.1,0-.31.1-.31.1.1.1.21-.1.31v.1h.21c.21-.31.51-.62.72-1.23-.41,0-.21.51-.62.41-.1,0-.1-.21-.1-.31-.31,0-.21.51-.51.51.31,0,.21.41,0,.51,0,.1-.21.1,0,0-.21-.1,0-.51-.31-.41,0,.21-.1.21-.1.31.31-.1.1.21,0,.21s-.1-.1,0-.21c-.1,0-.1-.1-.21-.1-.21.72-.62.51-.82,1.23,0-.41-.1,0-.31-.1v.21c.1,0,.1.1,0,.1v-.1c-.21,0-.31-.1-.41-.21.1,0,.21-.1.31-.1v-.21q-.1,0-.1-.1c-.1,0-.1-.1,0-.1v.1q.1,0,.1.1c.93,0,1.03-1.44,2.06-1.65-.1-.21-.21.1-.31-.1.31-.41.82-.51,1.34-.93-.21,0-.41-.21-.41-.41.31-.21.21.21.51-.1,0,.21,0,.31.21.31,0-.51.21-.51.1-.93.31,0,.21.21.41,0,0-.31-.1-.41-.31-.51,0,.21-.1.31-.21.31,0-.1,0-.21-.1-.21-.21.21-.31.31-.41.51.21,0,.21.1.1.21-.1,0-.1-.1-.1-.21-.41.31-.41.62-.93.51,0,.31,0,.62-.31.51,0,.1,0,.21-.1.21.21.41-.51.31-.72.31-.21.82-1.13.72-1.54,1.65.1,0,.1.1,0,.1,0,.1-.21.1,0,0v-.1c-.62.51-1.03,1.03-1.75,1.54-.1.41-.31-.1-.41.31.31,0-.1.41,0,0h-.1c0,.41-.31.31-.1.62-.72,0-.82.62-1.13.72.1,0,.1.21,0,.21v-.21c-.93.72-1.85,1.85-2.78,2.78,0-1.03.41-2.88.72-3.81.1-.62-.1-1.34.51-1.23.21-.41-.31-.1-.31-.31.1-.21.31.21.31-.21-.1,0-.21-.1-.21-.21.1,0,.1-.21.21-.21.31-.31.31-.72.1-1.13.31.1.21-.21.31-.31-.41-.21-.1-.72.1-.93-.41,0-.21-.72.21-.62-.21-.62.21-.62,0-1.34.62-.1.21-1.54,1.03-1.75-.1-.51.31-1.23,0-1.65-.21,0-.31.21-.31,0-.1-.72-.62-.62-1.03-1.23-1.34-.1-2.37-1.03-3.39-1.34-.31.21-.41.31-.93.21-.1.31-.51.41-.72.62-.1,2.37-1.13,4.53-1.95,6.58-.21,1.75-1.13,3.6-2.06,4.94-.21,1.23-.62,1.65-.93,2.26-.41-.1-.1-.31-.1-.62-.21.1-.31.31-.31.72-3.6,5.35-5.76,12.03-11.42,15.33-.62-3.6-.62-6.07.21-8.74-.21,0-.31-.1-.31-.21.31-1.03.21-1.85.72-2.67-.31-.31.1-.62,0-1.34.1,0,.21.21.31.21,0-.82,0-2.47.62-2.88-.31-1.03.41-1.34.31-2.16.31,0,.21.21.41,0-.1-.31-.21-.21-.21-.62.1,0,.31,0,.31-.1-.41-.1-.21-.82.31-.72-.21-.72.21-1.23.62-2.06,0-.1-.21-.1-.21-.21,0-.21.31-.21.31-.41-.1,0-.1-.1,0-.1v.1c.62-1.03,1.23-2.06,1.34-3.39.1.1.21.1.31.1,0-.41.1-.31-.1-.51,1.03-.82,1.75-2.06,2.57-2.88ZM41.81,12.97c0,.1-.1.1-.21.1,0-.1.1-.1.21-.1ZM40.48,13.07c0,.1-.1.1-.21.1,0-.1.1-.1.21-.1ZM40.37,13.9c-.41-.1-.1-.31,0-.51.31.1-.1.31,0,.51ZM40.99,13.49c0,.21-.31.21-.41.1,0-.1.21-.1.41-.1ZM38.52,15.23c.1-.41.41-.51.41-.82.1,0,.1.1.21.1,0-.1.1-.1,0,0,0,.1-.1.21-.1.41-.31,0-.31.21-.41.31.1,0,.1.21,0,0h-.1c-.1.21-.1.41-.41.31,0-.41-.1-.31,0-.62.21,0,0,.51.41.31ZM39.35,15.03c0,.1-.1.1-.21.1,0-.1.1-.1.21-.1ZM36.77,16.57c0,.21-.1,0-.21,0,0-.1.21-.1.21,0ZM37.91,16.67c0-.1.1-.1,0,0,.1.41-.31,0,0,0ZM36.36,17.29v-.51c.21.21.21-.1.41.1-.21.1-.1.41-.41.41ZM36.16,17.29c0-.1.1-.1,0,0q0,.1-.1.1c0,.1-.21.1,0,0q0-.1.1-.1ZM36.57,17.6c-.1-.51.51.1,0,0,0,.1-.21.1,0,0ZM33.69,17.81c0,.21-.1,0-.21,0,0-.1.21-.1.21,0ZM35.64,17.81c0-.1.1-.1,0,0v.41c-.1,0-.21,0-.21.1-.21-.1,0-.51.21-.51ZM35.03,18.53v-.21h.21v.21h-.21ZM33.79,19.86c0,.21-.1,0-.21,0,0-.1.21-.1.21,0ZM33.48,21.51c.1.21-.41.21-.31,0,0-.1.31-.1.31,0ZM31.53,26.03c-.1,0-.1-.21-.1-.31.21,0,.21.1.21.21q-.1,0-.1.1ZM30.5,30.15c0-.1.1-.1.1-.21.21.1.1.51-.1.21ZM30.29,32.62c-.31,0,0-.31,0-.41.21,0,0,.31,0,.41ZM23.51,36.11h.31c-.62,3.91-1.75,7.2-2.57,11.01-.31,1.34-.72,3.19-1.13,4.42-.51,1.44-.82,2.88-1.23,4.32-.21.62-.62,1.03-.82,1.65-.62,1.65-.82,3.39-1.85,4.83-.41,2.06-1.54,3.39-2.16,5.14-1.95,3.09-3.19,6.27-6.69,8.02-1.44-2.57-2.06-5.97-1.13-9.26-.1-2.57,1.65-4.22,1.65-6.27.72-.62.72-2.06,1.65-2.57,0-1.03.82-1.23.72-2.26.82-.72,1.54-1.95,1.75-2.98,1.44-1.44,1.85-3.39,3.39-4.73.1-.72.62-.93.72-1.65,1.54-1.03,1.95-3.29,3.6-4.32.93-1.85,2.16-3.09,3.39-4.42,0-.41.21-.72.41-.93ZM15.28,40.95c-.1,0-.1-.21-.1-.31.21,0,.21.1.21.21q-.1,0-.1.1ZM27.72,41.46v-.21h.21v.21h-.21ZM12.71,43.11c0-.1.1-.1,0,0,0,.31-.41-.1,0,0ZM12.09,44.14c0,.1-.1.1-.21.1,0-.1.1-.1.21-.1ZM12.4,44.86c-.1-.31.31-.21.21-.51.31.1,0,.51-.21.51ZM10.24,44.45c0,.1-.1.1-.21.1,0-.1.1-.1.21-.1ZM10.96,44.65c0,.1-.1.1-.21.1,0-.1.1-.1.21-.1ZM12.29,44.65c0,.1-.1.1-.21.1,0-.1.1-.1.21-.1ZM12.09,45.47c-.21,0-.21-.21-.21-.41.1.1.21.1.21,0,.21,0,0,.31,0,.41ZM15.89,45.58c0,.21-.1,0-.21,0,0-.1.21-.1.21,0ZM27.31,45.68c0,.21-.31.21-.41.1,0-.1.21-.1.41-.1ZM9.11,47.43c0-.1,0-.21.21-.21v.21h-.21c0,.1-.1.21-.1.31-.21,0-.1-.21,0-.31h.1ZM10.34,47.33c0,.1-.1.1-.21.1,0-.1.1-.1.21-.1ZM9.72,48.77c0,.21-.51.21-.31-.1.21,0,.21.1.31.1ZM9.21,49.38c-.1,0-.1-.1,0,0,.1,0,.21,0,.21-.1.31.1-.21.51-.21.1ZM10.44,50.21c0-.1.1-.1,0,0,0,.1-.21.1,0,0ZM7.05,51.23c-.1,0-.1-.21-.1-.41.41,0,0,.21.1.41ZM6.53,51.85c-.21,0-.21-.31-.1-.41.21,0,.21.31.1.41ZM7.97,51.65c.21-.31.31.31,0,0,0,.1-.21.1,0,0ZM8.49,51.95c0-.1.1-.1,0,0,0,.1-.21.1,0,0ZM5.92,52.88c-.1-.1-.1-.21,0-.41.21,0,.21.31.1.41h-.1c0,.1-.1.21-.1.31-.21,0-.1-.21,0-.31h.1ZM6.74,52.98c.21,0,.21-.1.41-.1-.21.21-.21.51-.51.51.1-.1.1-.21.1-.41ZM24.74,54.53c-.21,0-.1.31-.41.21,0-.62.21-1.13.62-1.54,0,.51,0,.93-.21,1.34.1,0,.1.21,0,0ZM5.4,54.11c-.21-.1,0-.62.1-.82.31.21.1.21.31.51-.31,0-.21.21-.41.31ZM6.95,53.6c0-.1.1-.1,0,0,0,.1-.21.1,0,0ZM6.53,53.7q.1,0,.1-.1c.21,0,.1.51-.1.31v-.21ZM6.02,54.01c-.21-.1,0-.21,0-.31.21.1,0,.21,0,.31ZM6.53,54.53c-.1-.41.31,0,0,0,0,.1-.21.1,0,0ZM4.68,55.04c0-.1.1-.1,0,0,0,.21,0,.41-.1.51-.21,0-.1-.41,0-.51h.1ZM5.2,56.17c.21-.1.31-.41.51-.62.1.1-.1.72-.51.62ZM4.27,56.07c-.21-.1-.1-.51.21-.41.1.31-.21.21-.21.41ZM4.68,55.97c0-.1.21-.21.21-.31.21,0,0,.41-.21.31ZM3.55,57.51c.1-.51.31-.93.51-1.34.1.31-.21,1.13-.51,1.34,0,.1-.21.1,0,0ZM4.99,57.2c-.31-.1-.1-.31,0-.51.31.1-.1.31,0,.51ZM24.12,56.69c.21.21-.41.51-.31.1,0,0,.21-.21.31-.1ZM4.58,58.13c-.21-.1-.21-.21-.1-.31h.21c-.1.1-.1.21-.1.31ZM3.24,58.64c-.31-.1.1-.21,0-.51.41,0,0,.41,0,.51ZM2.73,58.95c.21,0,.21-.1.41-.1-.21.31-.1.31-.31.62-.21-.1.1-.21-.1-.51ZM4.37,59.15c-.31,0,0-.41.21-.31.1.21-.21.1-.21.31ZM2.93,60.08c0-.41.31-.51.62-.62,0,.41-.31.51-.62.62ZM2.73,59.67c0-.1.1-.1,0,0,0,.1,0,.31-.1.31,0,.41-.41,0,0,0,0-.1,0-.21-.1-.21,0-.1.1-.1.21-.1ZM22.79,60.59c-.21,0-.21-.21-.21-.51.1.1.21.31.21.51ZM22.37,61.11c-.1.1-.21.21-.21.41-.31-.1,0-.51.1-.62.1,0,.1.1.1.21.21,0,.1-.31.31-.21-.21.31.1.72-.41.82,0,.21.21.51-.21.41,0,.21,0,.41-.21.31v-.31h.21c0-.51.31-.51.31-1.03ZM2.32,61.52c-.21-.1-.31-.31-.1-.51.21.1.31.41.1.51ZM4.37,61.01c0,.1-.1.1-.21.1,0-.1.1-.1.21-.1ZM2.21,61.83c.1-.21.21-.51.51-.62.1.31-.31.41.1.41-.41.31-.31,1.03-.51,1.54-.51-.31.21-.51,0-1.13-.31-.1-.21.21-.41.21q.21.31.1.72c-.31-.1-.1-.31-.21-.72h.1v-.51c.1,0,.21.1.31.1ZM4.07,61.73c0,.1-.1.1-.21.1,0-.1.1-.1.21-.1ZM3.76,62.45c-.21.1-.21-.1-.21-.31.1,0,.21.1.21.31ZM3.04,62.55c0-.1.1-.21.31-.21,0,.1-.1.21-.31.21ZM21.55,63.78c-.21-.1-.1-.62.21-.51,0,.31-.21.31-.21.51ZM1.08,65.94c.1-.72.31-1.65.51-2.37.1,1.23-.51,1.95-.41,3.39-.41-.21-.1-.72-.1-1.03-.1,0-.1-.1,0,0ZM1.8,64.5c0-.31,0-.41.31-.41,0,.21,0,.41-.31.41ZM3.14,65.12c-.41.1,0-.21-.1-.51.1-.31.21.62.1.51ZM1.7,65.33c-.1-.31.1-.41.1-.62.1,0,.21.72-.1.62ZM20.52,65.84c0-.1-.1-.21-.1-.41.1,0,.1.1.1.21.21-.21.21-.31.1-.62.1,0,.1.1.31.1,0-.1.1-.1,0,0,.1.41-.21.62-.41.72.1.41-.31,0,0,0ZM.67,66.46c-.41,0,.1-.72-.1-1.13.31.1.21,1.03.1,1.13ZM2.93,65.63c-.21-.1,0-.21,0-.31.21.1,0,.21,0,.31ZM1.7,65.63c0-.21.1-.21.1,0,.1,0,.1.21,0,0h-.1c0,.21.1.31,0,.31,0,.1.1.1.21.1,0,.1-.21.1-.31.1,0,.1.21.1.31.1-.1.72-.31,1.44,0,1.95-.31-.1-.21.93,0,1.23.1,0,.1.21,0,0-.1.72-.1,1.44,0,2.16-.72-1.75-.62-3.91-.31-5.45,0-.1-.1-.51.1-.51ZM.67,67.38c-.41.1-.1-.82.1-.41,0,.1-.1.1-.21.1,0,.1.1.21.1.31ZM2.21,67.69c-.1,0-.21-.1-.21-.31.1,0,.21.1.21.31ZM.47,67.9v-.21h.21v.21h-.21ZM2.52,69.34c-.41-.1.1-.62-.21-.82.31-.41.21.62.21.82ZM19.08,68.72v-.21h.21v.21h-.21ZM14.87,1.35h-.1c0,.21-.62.51-.1.51q0-.1.1-.1c0-.1,0-.21.1-.21v-.21ZM13.43,3.92h-.1c0,.41-.41.41-.31.82.21-.21.41-.41.41-.82ZM12.5,5.87c-.1,0-.1.1,0,.1v-.1ZM46.55,6.7q.1,0,.1-.1t-.1.1ZM46.55,6.7c-.21,0-.21.1-.21.21.1,0,.21-.1.21-.21ZM46.13,7.01c.1,0,.21,0,.21-.1-.1,0-.21,0-.21.1ZM45.62,7.11c.1,0,.21,0,.21-.1-.1,0-.21,0-.21.1ZM46.03,7.11h.1v-.1q-.1,0-.1.1ZM46.03,7.11h-.1c.1.21-.21.1-.21.31.31.1.82-.31.41-.31,0,.1-.1.1-.1,0ZM11.88,7.73c.1-.1.1-.21.21-.31-.21,0-.21.1-.21.31ZM45.83,7.93v-.1c-.1-.1-.21-.21-.21-.31-.31,0-.31.21-.51,0,0,.31.21.41-.21.41,0,.1,0,.31.1.31-.1-.51.31.1.31-.21-.1,0-.1-.1,0,0,.1,0,.1.1.21.1-.1-.21.1-.21.31-.21ZM46.03,7.83c-.1,0-.1.1-.21.1,0,.1,0,.31.1.31,0-.21.1-.21.1-.41ZM46.55,8.34c.1,0,.21.21.21,0,0-.1-.21-.1-.21,0ZM46.24,8.86c.21.1.41.31.51,0-.31,0-.21-.41-.62-.31v.21q.1,0,.1.1ZM46.13,8.75c-.1.1-.21.1-.31.1,0,.51.31.21.41,0q-.1,0-.1-.1ZM45.21,9.17c-.21-.1-.51.31-.21.31,0-.1.21-.21.21-.31ZM45.83,9.58c0-.21,0-.41-.31-.41.1.21.1.72.31.41ZM45.31,9.68c-.31,0-.72.21-.82.62.31.1.1-.31.41-.21,0,.1.1.21.1.31-.21,0-.31.1-.31.31.21.21.1,0,.41,0,.1-.41-.1-.72.21-1.03ZM44.08,10.4c0,.21,0,.41.1.41,0-.1.41-.31.1-.41,0,.1-.1.1-.21,0ZM43.56,10.61c0,.1-.21.21,0,.31,0-.1.21-.21,0-.31ZM42.95,12.15q.1,0,.1-.1h-.1v.1ZM26.49,13.07c.1,0,.21,0,.21-.1-.1,0-.21,0-.21.1ZM25.46,15.75c.41-.72.82-1.44,1.03-2.47-.41.62-.72,1.44-1.03,2.47ZM34.61,14.21c0,.21-.1.41.1.41-.1-.31.31-.41-.1-.41ZM41.2,14.31c.1,0,.1-.1,0-.1v.1ZM39.45,15.54q.1,0,.1-.1-.1,0-.1.1ZM15.17,16.26c0,.1-.21.21,0,.31,0-.1.21-.21,0-.31ZM39.65,16.47h.1c0-.1-.1-.1-.1,0ZM38.52,16.67q.1,0,.1-.1h-.1v.1ZM39.35,17.09c.1,0,.21,0,.21-.1-.1,0-.21,0-.21.1ZM38.52,17.5c.1,0,.1-.1,0-.1v.1ZM38.52,17.5c-.21.1-.62.41-.21.51,0-.21.21-.21.21-.51ZM37.39,17.91c-.1,0-.1.1-.1.21.1,0,.1-.1.1-.21ZM37.39,18.42c0,.31-.31.31-.31.51.31.1.62-.31.31-.51ZM36.77,19.25c-.1,0-.1-.1-.21-.1-.1.41.21.41.21.1ZM35.44,20.27c0,.1,0,.31.1.31.1-.1.1-.21-.1-.31ZM35.03,20.48c0,.21.1.21.21.21,0-.1-.1-.21-.21-.21ZM33.28,23.05h.1c0-.21.21-.21.21-.51-.31,0-.31.21-.31.51ZM2.21,61.83c.1,0,.21-.21.21.1-.1,0-.21,0-.21-.1ZM.88,68.31h-.1c-.21.21,0,.51.21.62.1-.31-.21-.31-.1-.62ZM.57,71.81c0,.21-.1.51.21.41,0-.21,0-.41-.21-.41ZM6.84,77.87c0,.1.1.1.1,0h-.1Z"/>
      <g class="h">
        <path class="g" d="M21.84-3.42L7.13,33.07l20.23-17.04,7.56-19.46-14.17,72.83-13.61,5.38-9.06-5.38L53.22,5.35"/>
      </g>
    </g>
  </g>
</svg>