<svg id="Layer_1" data-name="Layer 1" xmlns="http://www.w3.org/2000/svg" viewBox="0 0 147.75 117.21"><defs><style>.cls-1{fill:#fff;}</style></defs><path class="cls-1" d="M135.86,23.72c-.85-.87-1.91-2-2-3-1.11-8.87-15.75-14.46-23.34-11.28-5.26,2.2-9,5.9-12.33,10.31a17.16,17.16,0,0,1-3,3.11c-13.33,10.55-26.81,20.92-40,31.64-7.34,6-13.1,13.81-21.68,18.36a59.38,59.38,0,0,0-7.51,5,25.22,25.22,0,0,0-3.14,3.3c1.55.31,3.12,1,4.65.88a73.7,73.7,0,0,0,26.66-6.68c12-5.39,24.35-10.37,34.21-19.58.13-.11.42-.06.63-.08l.56.84c-5.11,4-10,8.33-15.37,11.8-12.71,8.16-26.95,12.19-41.78,14.4a11.67,11.67,0,0,0-4.3,1.42c-2.8,1.72-5.38,3.82-8.16,5.59-4.46,2.82-9,5.5-13.81,8.42l3.63.45c-1.39,4.09-2.69,7.89-4.07,11.94,5.22-4.48,10-8.94,15.21-13,6.67-5.18,13.46-10.39,22.69-9.82a14.47,14.47,0,0,0,3.48-.17c9.07-1.6,18.12-3.28,27.2-4.85a9.5,9.5,0,0,1,3.37.32c3,.62,6,1.5,9,1.93A10.07,10.07,0,0,1,94,89.7c.64,1-.61,3.22-1,4.89-.06.26-.08.53-.17,1.27,3.11-3.34,6-6.45,11.17-4.44-1.34-2.77-3.37-2.46-5.24-2.32a6.53,6.53,0,0,1-6.64-3.54c.71-1.16,1.66-2.1,1.84-3.16.4-2.4,1.93-3.13,4-3.91a31.44,31.44,0,0,0,7.93-4.17C116.48,66,120.72,54,124,41.6c1.24-4.65,6.11-9.35,11-9.35h8.62l.34-.67C141.22,29,138.49,26.4,135.86,23.72Zm-14.78-.44a3.36,3.36,0,1,1,3.35-3.35A3.37,3.37,0,0,1,121.08,23.28Z"/></svg>
