<svg id="Layer_1" data-name="Layer 1" xmlns="http://www.w3.org/2000/svg" viewBox="0 0 204 62.51"><defs><style>.cls-1{fill:#29592e;}.cls-2{fill:#1f8e49;}</style></defs><path class="cls-1" d="M80.45,25.18c2.24.35,2.91,2.13,2.91,3.93v4.07c0,3-2.2,4.89-6,4.89h-6.2V13.28h6.27c3.75,0,5.74,1.88,5.74,4.89v3.12C83.22,23,82.54,24.93,80.45,25.18Zm-5.91-1.34h2.87c1.59,0,2.48-.71,2.48-2.24V18.74c0-1.74-.82-2.55-2.48-2.55H74.54Zm3,2.83h-3v8.5h3c1.67,0,2.48-.82,2.48-2.55V28.9C80,27.38,79.14,26.67,77.55,26.67Z"/><path class="cls-1" d="M87,38.07V13.28H90.3V38.07Z"/><path class="cls-1" d="M104.07,38.07l-3.43-10.16H97.73V38.07H94.4V13.28h6.2c3.75,0,6,1.6,6,5.24v4.15c0,2.48-1.06,4-2.9,4.74l3.75,10.66ZM97.73,25h2.73c1.84,0,2.83-.74,2.83-2.94v-2.9c0-2.19-1-2.94-2.83-2.94H97.73Z"/><path class="cls-1" d="M122.52,18.52V32.83c0,3.65-2.27,5.24-6,5.24h-6.13V13.28h6.13C120.25,13.28,122.52,14.88,122.52,18.52Zm-6.16-2.3H113.7V35.13h2.66c1.84,0,2.83-.74,2.83-2.94v-13C119.19,17,118.2,16.22,116.36,16.22Z"/><path class="cls-1" d="M138.31,33.11c0,3.72-2.27,5.24-6,5.24h-.07c-3.76,0-6-1.48-6-5.24V18.24c0-3.58,2.26-5.24,6-5.24h.07c3.75,0,6,1.66,6,5.24v4.43H135V18.88c0-2.16-.92-2.94-2.73-2.94s-2.72.78-2.72,2.94v13.6c0,2.15.92,2.93,2.72,2.93s2.73-.78,2.73-2.93v-4.4h3.33Z"/><path class="cls-1" d="M151.65,38.07l-3.43-10.16h-2.9V38.07H142V13.28h6.19c3.76,0,6,1.6,6,5.24v4.15c0,2.48-1.06,4-2.9,4.74l3.75,10.66ZM145.32,25H148c1.84,0,2.84-.74,2.84-2.94v-2.9c0-2.19-1-2.94-2.84-2.94h-2.72Z"/><path class="cls-1" d="M158,38.07V13.28H168.4v2.94h-7.12V24h6v3h-6v8.14h7.23v2.94Z"/><path class="cls-1" d="M171.73,38.07V13.28h10.44v2.94h-7.11V24h6v3h-6v8.14h7.22v2.94Z"/><path class="cls-1" d="M195.2,38.07l-4-11.86-2.34,4.28v7.58H185.5V13.28h3.33V25.22l5.81-11.94h3.54l-5.07,9.32,5.49,15.47Z"/><path class="cls-2" d="M56.81,19.29a2.52,2.52,0,0,1-.81-1.2c-.43-3.5-6.2-5.71-9.2-4.45a11.75,11.75,0,0,0-4.86,4.07,6.76,6.76,0,0,1-1.17,1.22C35.51,23.09,30.2,27.18,25,31.41c-2.9,2.35-5.17,5.44-8.55,7.24a22.38,22.38,0,0,0-3,2,9.56,9.56,0,0,0-1.24,1.3,8,8,0,0,0,1.83.34,28.86,28.86,0,0,0,10.51-2.63c4.74-2.12,9.6-4.08,13.49-7.72.05,0,.17,0,.25,0l.22.33c-2,1.56-3.92,3.28-6.06,4.65A41,41,0,0,1,16,42.54a4.73,4.73,0,0,0-1.7.56c-1.1.68-2.12,1.51-3.21,2.21-1.76,1.11-3.56,2.17-5.45,3.31l1.43.18c-.55,1.62-1.06,3.11-1.6,4.71,2.06-1.76,3.95-3.53,6-5.11,2.64-2,5.31-4.09,9-3.87a5.68,5.68,0,0,0,1.37-.07c3.58-.63,7.15-1.29,10.73-1.91a3.81,3.81,0,0,1,1.33.13c1.18.24,2.35.59,3.55.76a4,4,0,0,1,2.88,1.87c.25.4-.24,1.27-.39,1.92,0,.11,0,.22-.07.51,1.23-1.32,2.36-2.55,4.41-1.76-.53-1.09-1.33-1-2.07-.91a2.58,2.58,0,0,1-2.62-1.4,4.3,4.3,0,0,0,.73-1.24c.16-1,.76-1.23,1.56-1.55A11.83,11.83,0,0,0,45,39.24c4.2-3.27,5.87-8,7.16-12.9.49-1.83,2.41-3.69,4.32-3.69,1.14,0,2.27,0,3.4,0l.14-.26C58.92,21.36,57.85,20.35,56.81,19.29ZM51,19.12A1.33,1.33,0,1,1,52.3,17.8,1.33,1.33,0,0,1,51,19.12Z"/><path class="cls-2" d="M78.87,53.31H77.41a.71.71,0,0,1-.64-.34l-2.35-3.4a.8.8,0,0,0-.26-.26,1,1,0,0,0-.42-.07h-.92v4.07H71.18V43.2h3a6.15,6.15,0,0,1,1.71.21,3.22,3.22,0,0,1,1.19.57,2.35,2.35,0,0,1,.68.91A2.94,2.94,0,0,1,78,46.06a2.84,2.84,0,0,1-.16,1,2.68,2.68,0,0,1-.45.83,2.87,2.87,0,0,1-.74.64,3.41,3.41,0,0,1-1,.43,1.58,1.58,0,0,1,.52.51ZM74.12,48a3.23,3.23,0,0,0,1-.13,1.9,1.9,0,0,0,.7-.39,1.49,1.49,0,0,0,.42-.58,2.06,2.06,0,0,0,.14-.76,1.5,1.5,0,0,0-.55-1.26,2.6,2.6,0,0,0-1.65-.43H72.82V48Z"/><path class="cls-2" d="M92.91,48.25a5.77,5.77,0,0,1-.37,2.07,4.72,4.72,0,0,1-1,1.63A4.51,4.51,0,0,1,89.92,53a5.66,5.66,0,0,1-4.13,0A4.51,4.51,0,0,1,84.2,52a4.58,4.58,0,0,1-1-1.63,5.56,5.56,0,0,1-.37-2.07,5.64,5.64,0,0,1,.37-2.07,4.67,4.67,0,0,1,1-1.63,4.51,4.51,0,0,1,1.59-1.07,5.66,5.66,0,0,1,4.13,0,4.51,4.51,0,0,1,1.59,1.07,4.82,4.82,0,0,1,1,1.63A5.85,5.85,0,0,1,92.91,48.25Zm-1.68,0A4.73,4.73,0,0,0,91,46.69a3.25,3.25,0,0,0-.67-1.18,2.94,2.94,0,0,0-1.06-.74,3.54,3.54,0,0,0-1.41-.26,3.45,3.45,0,0,0-1.39.26,3,3,0,0,0-1.07.74,3.42,3.42,0,0,0-.68,1.18,4.73,4.73,0,0,0-.24,1.56,4.86,4.86,0,0,0,.24,1.58A3.37,3.37,0,0,0,85.39,51a3,3,0,0,0,1.07.74,3.62,3.62,0,0,0,1.39.25,3.73,3.73,0,0,0,1.41-.25A2.94,2.94,0,0,0,90.32,51,3.2,3.2,0,0,0,91,49.83,4.86,4.86,0,0,0,91.23,48.25Z"/><path class="cls-2" d="M107.63,48.25a5.77,5.77,0,0,1-.36,2.07,4.87,4.87,0,0,1-1,1.63A4.51,4.51,0,0,1,104.65,53a5.66,5.66,0,0,1-4.13,0A4.51,4.51,0,0,1,98.93,52a4.74,4.74,0,0,1-1-1.63,5.77,5.77,0,0,1-.36-2.07,5.85,5.85,0,0,1,.36-2.07,4.84,4.84,0,0,1,1-1.63,4.51,4.51,0,0,1,1.59-1.07,5.66,5.66,0,0,1,4.13,0,4.51,4.51,0,0,1,1.59,1.07,5,5,0,0,1,1,1.63A5.85,5.85,0,0,1,107.63,48.25Zm-1.67,0a4.73,4.73,0,0,0-.24-1.56,3.4,3.4,0,0,0-.67-1.18,3,3,0,0,0-1.07-.74,3.46,3.46,0,0,0-1.4-.26,3.53,3.53,0,0,0-1.4.26,2.94,2.94,0,0,0-1.06.74,3.27,3.27,0,0,0-.68,1.18,4.73,4.73,0,0,0-.24,1.56,4.86,4.86,0,0,0,.24,1.58,3.22,3.22,0,0,0,.68,1.17,2.94,2.94,0,0,0,1.06.74,3.71,3.71,0,0,0,1.4.25,3.64,3.64,0,0,0,1.4-.25,3,3,0,0,0,1.07-.74,3.35,3.35,0,0,0,.67-1.17A4.86,4.86,0,0,0,106,48.25Z"/><path class="cls-2" d="M114.52,44.53v3.23h4v1.33h-4v4.22h-1.65V43.2h6.3v1.33Z"/><path class="cls-2" d="M125.89,53.31h-1.65V43.2h1.65Z"/><path class="cls-2" d="M140.09,43.2V53.31h-.83a.81.81,0,0,1-.33-.07.84.84,0,0,1-.25-.22l-5.55-7.13,0,.4c0,.14,0,.26,0,.37v6.65h-1.44V43.2h1l.14,0,.12.09a.58.58,0,0,1,.12.14l5.55,7.13,0-.43c0-.14,0-.27,0-.39V43.2Z"/><path class="cls-2" d="M154.21,48.33v4a5.83,5.83,0,0,1-3.51,1.09,6.23,6.23,0,0,1-2.22-.38,5.18,5.18,0,0,1-1.7-1.07,4.94,4.94,0,0,1-1.08-1.63,5.63,5.63,0,0,1-.38-2.09,5.84,5.84,0,0,1,.37-2.09,4.62,4.62,0,0,1,1.05-1.64,4.89,4.89,0,0,1,1.64-1.06,5.9,5.9,0,0,1,2.16-.37,6.64,6.64,0,0,1,1.13.09,6.51,6.51,0,0,1,1,.27,4.91,4.91,0,0,1,.83.4,4.65,4.65,0,0,1,.7.54l-.47.75a.44.44,0,0,1-.67.13L152.6,45a3.76,3.76,0,0,0-.53-.25,3.48,3.48,0,0,0-.68-.19,4.81,4.81,0,0,0-.91-.07,3.69,3.69,0,0,0-1.44.26,3.26,3.26,0,0,0-1.1.75,3.39,3.39,0,0,0-.7,1.18,5.25,5.25,0,0,0,0,3.17,3.43,3.43,0,0,0,.74,1.21,3.06,3.06,0,0,0,1.16.75,4,4,0,0,0,1.51.26,4.23,4.23,0,0,0,1.11-.13,5.41,5.41,0,0,0,1-.37v-2h-1.41a.37.37,0,0,1-.26-.09.3.3,0,0,1-.09-.23v-.93Z"/></svg>