<?xml version="1.0" encoding="UTF-8"?>
<svg id="b" data-name="Layer 2" xmlns="http://www.w3.org/2000/svg" xmlns:xlink="http://www.w3.org/1999/xlink" viewBox="0 0 75.39 83.52">
  <defs>
    <style>
      .f, .g {
        fill: none;
      }

      .g {
        stroke: #000;
        stroke-linecap: round;
        stroke-linejoin: round;
        stroke-width: 17.36px;
      }

      .h {
        clip-path: url(#e);
      }
    </style>
    <clipPath id="e">
      <path class="f" d="M62.43,0c-.21.31.31.31.31.1-.1,0-.1-.1-.31-.1ZM61.3.21c.1,0,.21.21.21,0,0-.1-.21-.1-.21,0ZM69.02.41c.1,0,.21,0,.21-.1-.1,0-.21,0-.21.1ZM73.85,5.66c-.1-.62.62-.51.51-1.13-.31-.1-.51-.21-.62-.21.21-.41,1.23-.1,1.65-.31-.31-.41-.82,0-1.13-.21-.1-.31.31-.1.21-.41-.31-.1-.62-.21-.72-.21.1-.41,1.03.21,1.23-.31-.62.1-1.13-.41-1.75-.31-.1-.1-.1-.31-.1-.62-.51-.1.1.31-.21.31-.31-.1-.1-.31-.1-.51-.21,0-.21.1-.41.1-.93-.93-2.47-.31-3.09-1.03-.51.1-1.03,0-1.54.31-.31-.31-.62-.31-.93-.1,0-.31-.31-.31-.41-.51-1.13.31-1.75.62-2.57.31-1.54.1-3.39.1-4.83-.21-.21.31-.72.51-1.03.1-.1.1-.1.41-.31.41-.1-.1-.1-.21-.1-.41-.31,0-.31.31-.51.31-.62-.72-1.44.1-2.06.1,0-.21-.1-.31-.31-.31-.62.62-1.85-.21-2.88,0,0,.31.1.62-.21.62-.31-.1.21-.41-.21-.41.1.41-.1.41-.31.51-.51-.51-1.23,0-1.95,0,0-.21-.1-.31-.1-.41-.72,0-1.34.41-2.16.1-.1.1,0,.41-.21.41-.21-.41-.41-.31-.72-.1,0-.21-.21-.31-.31-.41,0,.41-.51.21-.62.51-.21-.1-.31-.31-.51-.41-.51.93-1.85,1.03-2.88,1.03,0-.1.1-.21.1-.31-.62.21-1.34.72-1.65.31,0-.31.21-.21,0-.41-.41,0-.41.41-.82.51-1.75-.21-2.47,1.03-3.91.72-.1-.21-.21-.31-.41-.41-.1.21-.1.72-.41.72-1.03-.62-2.37.41-3.29-.21-.31.1-.41.21-.51.41-.72-.72-1.85.62-2.88.1-.31.1-.31.41-.62.41-2.47.21-5.76.1-7.92.72-3.39-.62-6.89.72-9.67-1.13q-.51.21-1.23.21c-.51,1.54-.21,3.91.82,5.04-.21,2.06,1.34,2.98,2.47,3.91,6.69.41,13.89-.51,20.16-1.03-.72,2.16-2.67,3.09-3.19,5.35-.62.1-.72,1.44-1.34.93-3.29,5.86-6.99,11.42-10.18,17.28,0-.21,0-.41-.1-.41,0,.21-.41.1-.51.1-.21.21.1.41-.1.62-.31-.21-.21-.1-.51,0v-.21c-.21,0-.21-.1-.31-.1,0,.72-.93.72-1.23.51-3.09.93-7.3,2.26-10.29,3.91.21.31.62-.31.82,0-.72.51-1.75,1.23-2.57,1.34v1.65c-.21.1-.31.21-.51.31,0,.21.31.51-.1.51,0,.41.41.31.41.72-.41.41,0,.82-.21,1.34.1.41.62.41.51,1.03.21,0,.41,0,.41.21s-.31.1-.31.31c.21,0,.41,0,.41.21-.1.21-.31.31-.21.62.41.1.31-.31.62-.31.1.62.41.93.1,1.44.41.51,1.03.1,1.75.1,0-.31-.31-.21-.21-.62,1.85-1.65,5.14-2.47,7.3-3.19-2.16,4.42-4.53,8.74-6.38,13.37-.62,1.03-1.34,1.95-1.44,3.39-1.65,2.57-2.67,5.76-4.01,8.64.31.72-.31,1.23-.1,1.95-.21-.1-.1.21-.31.21.1.72-.1,1.75-.1,2.47,1.54,2.98,1.95,7.51,5.66,8.02.21-.21.51-.21.82-.1,1.23-1.03,3.5-1.34,4.73-1.85.1-.31.1-.62.31-.72q.31.1.62.31c.31,0,.41-.51.93-.21-.1-.21-.62-.51-.1-.72.31,0,.1.41.41.41,1.44-.51,3.19-.93,4.94-1.75-.1-.1-.31-.1-.31-.21,2.67-.72,4.53-1.54,7.2-1.95.62-.41,1.34-.62,2.06-.41.1-.62.93-.72,1.44-.41.72-.72,1.95-.62,2.98-1.03.1.1.1.21.31.21.1-.51-.41-.31-.51-.51.21-.62.82-.51,1.44-.31.72-.51,1.44-.1,2.06-.31.1-.51-.62-.1-.72-.41,0-.31.62.1.51-.31,0-.21-.51.1-.31-.31h.31c0-.1,0-.21.21-.21,0,.1,0,.21-.21.21.31.31.62.51.93.21,0,.31.41.31.62.41.31-.1.62-.1.62-.51-.62.1-1.03-.1-1.23-.41.31-.1.31.21.51.21,0-.41.21-.31.82-.31,1.34-.31,2.57-1.23,4.53-.72,1.65-1.23,4.63-1.13,6.38-1.95-.21-.1-.72.1-.72-.1.21-.21.51-.1.82-.21.21.31,1.03.72,1.23.1-.31-.1-.62.31-.72,0,.82-.41,2.16-.41,3.09-1.03-.41.1-.51-.1-.72-.21-.1.31-.51.21-.41-.21.31-.1.21.21.41.21.1-1.03,1.34.1,1.54-.62-.1-.21-.62,0-.72-.21.51-.21,1.44-.62,2.16-.21.21-.82,1.23-.72,1.95-.93.1-.41-.51,0-.51-.31.21-.51.62-.72.82-1.23-.72-.1-1.44.31-1.95,0,.1-.51.72,0,.82-.41-.51,0-.31-.1-.21-.41-.72,0-1.54-.51-2.16-.1,0-.41-.82-.1-1.13-.21.1-.21-.21-.1-.21-.31,0-.51.31-.82.41-1.23-1.85-.31-4.11,1.13-5.35.21-3.09.93-6.69,1.03-9.36,2.16-7.82,1.34-16.05,4.01-23.97,6.48-.1.41-.1.93-.31,1.23-.62-1.44-2.37-.21-3.09.51,0-.31-.31-.21-.62-.21.1.72-.82.51-1.03.93.1-1.03.82-2.47,1.44-3.39.1-.31-.31-.21-.21-.51.31,0,.31-.1.62-.31.41-1.13.41-2.37,1.13-2.88.1-.41-.51-.1-.41-.41.51,0,1.23-.41.93-1.13.51-.31,1.03-1.23.62-1.85.41,0,.31-.72.82-.41.41-.82.41-1.65.72-2.47-.21-.31-.41.31-.51,0-.1-.51.51-.21.41-.72,0-.1-.31,0-.31-.21.31-.62.62-.93,1.34-.93.1-.51.51-.72.93-.93-.31-1.23.72-1.54.62-2.67-.62.31-.31-.93.1-1.03.21-1.03.41-2.26,1.65-2.37.31-1.13,1.13-1.65,1.34-2.78-.41-.21-.31-.93-.1-1.34.31,0-.31.41.1.41.21-.62.51-1.13.93-1.65-.1,0-.31,0-.31-.1.1-.21.1-.62.21-.82.21,0,.21.31.51.21.21-.31-.21-1.03.41-1.13-.1.31.1.41.31.51.1-.41-.41-.62-.1-.93.31.21.31.41.21.82.62-.1.82-.51.82-1.23.72-.72,1.23-1.85,2.37-1.44,0-.41.41-.1.62-.1.1-.21.21-.31.41-.41.1.1.21.1.41.1.31-.31,1.23-.21,1.13-.72,0,.21-.31,0-.31-.1.21-.21.31-.51.51-.72.21.1-.21.41.21.41.1-.51-.31-.62-.31-1.03.21,0,.21-.1.41-.1.1.41.82-.1,1.03.41-.41.31.21.41-.21.82.31.21.31-.21.72,0,.21-1.34,1.65.1,2.47-.41-.21-.21-.62-.21-.62-.62.21-.21.31.31.72,0,0,.31-.21.21,0,.41.31.1.41-.51.51-.21,0,.21-.1.21-.1.31.51,0,.72-.21,1.23-.41-.21-.41,0-.21.21-.41-.21,0-.21-.21-.21-.51-.51.1-.51.41-.82.1,0,.21,0,.41-.21.31,0-.21,0-.31.21-.31-.1-.51-.51.31-.72-.21.41-.62.93-.21,1.44-.51,0,.21-.1.21-.1.31.41,0,.41-.41.72-.51,0,.62-.1,1.13.41,1.54,0-.21-.21-.31-.21-.51.41-.1.51-.31.82-.21,0,.21-.31.21-.21.51.62.51.93-.31,1.65-.21,0-.21-.21-.41,0-.62.51.31,1.13-.41,1.75-.82-.51.62.62.31.41.93.41-.1.82-.21,1.13-.41-.1-.31.1-.41.1-.62-.21-.21-.41.1-.62-.1,0,.21-.1.31-.1.41.1,0,.1.21,0,.21v-.21c-.21,0-.21-.21-.21-.51-.41-.31-.62.31-.72-.1,1.65-.62,3.6-1.03,5.55-1.23-.31.31,0,.51-.21.93.51-.41,1.23.21,1.44-.41h-.72c0-.31,0-.62.1-.72.41.31.62-.31,1.13,0,.51-.72,2.37,0,2.67-1.13-.41-.31-.51.21-1.03.1-.31-.41-.51-.51-1.03-.62.21,0,.21-.21.51-.21.1.1.1.21.31.21.31,0,.41-.51.21-.72.31.1.21-.31.62-.21-.1-.1-.21-.51,0-.51s.21.62,0,.51c0,.31.72.21.72,0s-.51-.41-.1-.62c.31.1.31.62.72.62.21-.21.41-.41.82-.21.1-.41-.31-.62-.1-.82.31.31.21.1.51,0,.31,0,.21.62.51.31,0-.41.31-.51.51-.93-.41,0-.51.41-.72.21,0-.21,0-.41.1-.51-.41,0-.31-.51-.72-.31.1-.31-.41-.51-.1-.72.21.21.93.31.82-.1.1.21.62.31.62,0,0-.21-.62,0-.51-.31.1-.41,1.03,0,1.13-.51-.62,0-1.34,0-1.95-.31,0-.21.31-.1.21-.41-.21-.1-.31-.1-.62,0v-.31c-.72-.21-1.13.41-1.65,0-.21.21-.21.51-.41.72-.1-.1-.21-.31-.41-.1v-.41c-.82.21-1.34.31-1.95.31,0,.31-.1.41-.21.51-.51-.21-.72-.31-1.23-.31-.1.41.31.51.1.72-.93-.31-2.26-.51-3.09.1-.31-.41-.93.1-1.03,0,0-.1.1-.1.1-.21-.72,0-1.34,0-1.85.41-.1-.1-.21-.21-.21-.31.1-.1.51,0,.51-.31-.31-.21-.72.1-.93.21-.1.41.31.72-.1.82-.1,0-.21-.1-.21-.31-.41.21-.31,0-.62-.1-.1.1-.1.41-.1.72-.31-.31-.31.21-.51.21-.31-.21-.62-.31-.93-.1.1-.21.41-.51.1-.72-.21.31-.82.31-.93.62,0-.51-.41,0-.62-.31,0,.31.41.62,0,.72.1-.41-.31-.31-.31-.62-.62,0-.72.62-1.03.93-.41,0-.41.21-.62-.1-.1.1-.1.41-.31.41-.82-.41-1.65,1.03-2.26.21-.41.31.41.41.1.72-.21-.1-.41,0-.51-.21.1-.82.62-.72.93-.82-.1-.21-.51-.1-.51-.41.62-.51.41-1.85,1.44-1.95.21-1.54,1.65-1.85,1.85-3.5.51-.51,1.13-1.13,1.23-2.06h.31c.62-1.85,1.85-3.19,3.29-4.42.1-1.03-.41-1.85-.82-2.67-.41-2.16-1.44-3.7-2.78-4.94,4.63-.51,11.31-1.65,15.63-2.16.1,0,.51.21.72-.1.21,0,.21.21.51.21,3.5-.41,7.51-.31,11.73-.62.21-.21.41-.51.62-.82.62-.31.51.51,1.23.31-.21.21,0,.41,0,.62.31-.1.62-.1.93,0-.1-.21,0-.51-.21-.62,0,.21-.51.51-.62.21.51-.51.93-.62,1.34-.51,0,.31-.41.31-.31.72.31.21.41,0,.82,0v-.41c-.1-.21-.51,0-.41-.41.51-.1.41.21.62.41.41-.51,1.03,0,1.75-.21v.41c.41,0,.62-.31,1.03-.1-.21-.93.93.21.93-.62-.31-.1-.93.1-1.03-.41.31-.31.72.1,1.03-.1,0,.21-.1.41.1.41.93-.51,2.37-.21,3.6-.21-.41-.51.62-1.44.21-1.95.1,0,.1.1.21.1ZM73.34,6.17v-.21c.21,0,.31,0,.31.21h-.31ZM72,6.58c-.1.21-.51.1-.41-.21.31-.1.21.21.41.21ZM72.62,6.89c-.31,0-.1-.31-.51-.1-.1-.31.21-.21.21-.41.41,0,.62.31.93.1,0,.51-.31.21-.62.21v.21q.1,0,.1.1c.1,0,.21,0,.21.21h-.21v-.21q-.1,0-.1-.1ZM67.17,7.51c0,.1-.1.1-.21.1,0-.1.1-.1.21-.1ZM58.32,7.71c0,.1-.1.1-.21.1,0-.1.1-.1.21-.1ZM45.57,29.11c-.31.1-.21-.21-.21-.41.21,0,.21.21.21.41ZM49.58,29.11c0-.1.21-.21.21-.31.1,0,.1.21.1.31h-.31ZM47.42,29.62v-.21h.21v.21h-.21ZM49.89,29.73c.1-.1.62-.31.72-.1-.1.41-.51.1-.72.1-.1.21-.21.21-.31.1v-.21c.1,0,.21.1.31.1ZM46.18,29.62c0,.1-.1.1-.21.1,0-.1.1-.1.21-.1ZM49.06,30.03c.1-.1,0-.41.31-.31,0,.21-.1.31-.31.31ZM47.62,30.14c0-.1.1-.1.1-.21.1,0,.1.1.21.1,0,.1-.1.1-.1.21-.1,0-.1-.1-.21-.1ZM48.55,30.24c-.21.1-.21-.1-.21-.31.1,0,.21.1.21.31ZM48.55,31.06c0-.1.21-.21.21-.31.31,0,.51.21.51.51-.41,0-.31-.41-.72-.21ZM49.78,30.96c0,.21-.1,0-.21,0,0-.1.21-.1.21,0ZM34.05,31.17v-.21h.21v.21h-.21ZM49.78,31.37c0-.31.41-.31.62-.21,0,.21-.21.21-.1.51-.21,0-.31-.21-.51-.31ZM47.73,31.78c-.21-.41.51,0,.51-.31.21.21.21.51,0,.72-.1-.21-.31-.31-.51-.41ZM42.69,31.99c.1-.31.31-.21.41,0,0,.31-.31,0-.41,0ZM49.06,32.61c0-.21.1-.31.1-.41.21,0,.21.21.21.41h-.31ZM42.89,32.61v-.21c.21,0,.21.1.21.31-.1,0-.1-.1-.21-.1ZM47.93,32.91v-.21h.21v.21h-.21ZM45.26,34.25c.1-.31.41,0,.51-.41.31.31-.1.72-.41.72,0-.1,0-.31-.1-.31ZM46.29,34.66c-.21-.1-.31-.1-.31-.41.31,0,.31.1.31.41ZM43.92,34.77c-.21,0-.21.41-.51.31,0-.21-.21-.21-.1-.51.31.21.51-.21.62.21.41,0,0,.41,0,0ZM44.64,34.87c-.21-.1,0-.21,0-.31.21.1,0,.21,0,.31ZM45.98,34.56c0,.1-.1.1-.21.1,0-.1.1-.1.21-.1ZM45.36,35.28c-.21,0-.21-.21-.21-.41.21,0,.21.21.21.41ZM14.19,37.23c0-.1.1-.21.31-.21,0,.1-.1.21-.31.21ZM36.51,37.44c.1-.31.51-.21.82-.31,0,.31-.51.51-.82.31ZM34.35,37.75c.21-.21.62-.1.93-.31.31.41-.82.21-.51.93-.31-.1-.41-.31-.41-.62ZM30.65,39.19v-.21h.21v.21h-.21ZM33.12,39.39c-.1,0-.1-.21-.1-.41.41,0,0,.21.1.41ZM13.58,39.6v-.31c.31-.1.31.51,0,.31ZM12.86,40.32c0,.1-.1.1-.21.1,0-.1.1-.1.21-.1ZM22.53,41.14v-.31c.31-.1.31.51,0,.31ZM2.57,41.76c0-.1.21-.21.21-.31.21,0,0,.41-.21.31ZM11.01,44.64c0-.31,0-.41.31-.41,0,.31,0,.41-.31.41ZM17.49,51.12c.1-.1.1-.41.41-.41,0,.31-.21.41-.41.41ZM15.33,55.13c0-.1.21-.21.21-.31.41.1,0,.62-.21.31ZM15.33,56.16c-.21,0-.1-.41,0-.51.31.1-.1.31,0,.51ZM9.57,68.19c-.1-.31.1-.41.1-.62.21,0,.21.1.31.1,0,.31-.1.51-.41.51ZM50.19,67.78v-.21h.51c.1.31-.31.21-.51.21ZM8.43,71.28c0-.31,0-.41.31-.41,0,.31,0,.41-.31.41ZM9.36,72.93c0,.1-.1.1-.21.1,0-.1.1-.1.21-.1ZM33.12,73.34c.1-.41.93,0,.93.41-.41-.1-.51-.41-.93-.41-.21.31-.82.62-1.13.41,0-.51.72-.31,1.13-.41ZM14.61,79.82c0-.1.1-.21.31-.21,0,.1-.1.21-.31.21,0,.21-.51.21-.31-.1.1,0,.1.1.31.1ZM74.37,2.06c.1,0,.21,0,.21-.1-.1,0-.21,0-.21.1ZM74.98,3.5c.1,0,.21.21.21,0,0-.1-.21-.1-.21,0ZM74.88,4.63c.1,0,.21,0,.21-.1-.1,0-.21,0-.21.1ZM74.88,5.35c-.21,0-.41,0-.31.21.21,0,.31-.1.31-.21ZM74.16,5.55c.1,0,.21,0,.21-.1-.1,0-.21,0-.21.1ZM73.85,5.66c-.1.21.31.51.31.21-.1,0-.21-.21-.31-.21ZM69.53,8.43c0,.1-.1.21-.1.41.31.1.41-.41.1-.41ZM51.22,28.59c-.21-.51-.41-.31-.93-.31-.1.41.51.21.62.51,0-.1.1-.21.31-.21ZM36.21,29.83c-.31,0-.31.21-.41.31.31,0,.41,0,.41-.31ZM52.56,30.55v.21h.21v-.21h-.21ZM31.78,30.65v.31c.31.21.31-.41,0-.31ZM50.81,30.96c.1,0,.21,0,.21-.1-.1,0-.21,0-.21.1ZM30.55,31.06c-.31-.21-.93,0-1.03.31.41,0,.93.1,1.03-.31ZM49.99,32.71c.1,0,.21,0,.21-.1-.1,0-.21,0-.21.1ZM50.09,33.02c0,.21,0,.41.21.31,0-.21-.1-.31-.21-.31ZM49.78,34.25q0,.1-.1.1v.21h.21q0-.1.1-.1v-.21h-.21ZM50.4,34.25v.21h.31c0-.21-.1-.21-.31-.21ZM48.45,34.35c0,.21,0,.31.1.41.21,0,.41,0,.41-.31q-.31.1-.51-.1ZM41.97,36.31v.21h.21v-.21h-.21ZM42.48,36.62c-.1.31.31.41.41.21-.21,0-.31-.1-.41-.21ZM40.42,36.72v.62c.41.1.51-.21.72,0,0-.62-.51-.1-.72-.62ZM32.81,38.37v.21h.21v-.21h-.21ZM27.67,39.91v.21h.31c0-.21-.1-.21-.31-.21ZM27.67,40.53v.21q0,.1.1.1c0-.1.21-.21.21-.31h-.31ZM20.16,46.29v.21h.21v-.21h-.21ZM2.57,47.21q-.1,0-.1-.1h-.21c-.21.31.31.31.31.1ZM16.15,54.72c.1,0,.51-.41.21-.51,0,.21-.31.21-.21.51ZM49.37,62.02c-.41,0-.62,0-.72.31.31-.1.51-.21.72-.31ZM51.63,68.61c.21.31.51.1.72-.1-.1-.1-.72-.21-.72.1ZM50.3,69.43c-.21.31.31.31.31.1-.1,0-.1-.1-.31-.1ZM49.06,70.46c.1,0,.21,0,.21-.1-.1,0-.21,0-.21.1ZM45.77,70.97c.1,0,.21,0,.21-.1-.1,0-.21,0-.21.1ZM39.7,71.9c0,.1-.1.1-.1.21.21,0,.31,0,.31-.21h-.21ZM37.54,72.72c-.31-.1-.31.1-.51.1-.1.31.72.31.51-.1Z"/>
    </clipPath>
  </defs>
  <g id="c" data-name="Layer 1">
    <g id="d" data-name="E">
      <path class="f" d="M62.43,0c-.21.31.31.31.31.1-.1,0-.1-.1-.31-.1ZM61.3.21c.1,0,.21.21.21,0,0-.1-.21-.1-.21,0ZM69.02.41c.1,0,.21,0,.21-.1-.1,0-.21,0-.21.1ZM73.85,5.66c-.1-.62.62-.51.51-1.13-.31-.1-.51-.21-.62-.21.21-.41,1.23-.1,1.65-.31-.31-.41-.82,0-1.13-.21-.1-.31.31-.1.21-.41-.31-.1-.62-.21-.72-.21.1-.41,1.03.21,1.23-.31-.62.1-1.13-.41-1.75-.31-.1-.1-.1-.31-.1-.62-.51-.1.1.31-.21.31-.31-.1-.1-.31-.1-.51-.21,0-.21.1-.41.1-.93-.93-2.47-.31-3.09-1.03-.51.1-1.03,0-1.54.31-.31-.31-.62-.31-.93-.1,0-.31-.31-.31-.41-.51-1.13.31-1.75.62-2.57.31-1.54.1-3.39.1-4.83-.21-.21.31-.72.51-1.03.1-.1.1-.1.41-.31.41-.1-.1-.1-.21-.1-.41-.31,0-.31.31-.51.31-.62-.72-1.44.1-2.06.1,0-.21-.1-.31-.31-.31-.62.62-1.85-.21-2.88,0,0,.31.1.62-.21.62-.31-.1.21-.41-.21-.41.1.41-.1.41-.31.51-.51-.51-1.23,0-1.95,0,0-.21-.1-.31-.1-.41-.72,0-1.34.41-2.16.1-.1.1,0,.41-.21.41-.21-.41-.41-.31-.72-.1,0-.21-.21-.31-.31-.41,0,.41-.51.21-.62.51-.21-.1-.31-.31-.51-.41-.51.93-1.85,1.03-2.88,1.03,0-.1.1-.21.1-.31-.62.21-1.34.72-1.65.31,0-.31.21-.21,0-.41-.41,0-.41.41-.82.51-1.75-.21-2.47,1.03-3.91.72-.1-.21-.21-.31-.41-.41-.1.21-.1.72-.41.72-1.03-.62-2.37.41-3.29-.21-.31.1-.41.21-.51.41-.72-.72-1.85.62-2.88.1-.31.1-.31.41-.62.41-2.47.21-5.76.1-7.92.72-3.39-.62-6.89.72-9.67-1.13q-.51.21-1.23.21c-.51,1.54-.21,3.91.82,5.04-.21,2.06,1.34,2.98,2.47,3.91,6.69.41,13.89-.51,20.16-1.03-.72,2.16-2.67,3.09-3.19,5.35-.62.1-.72,1.44-1.34.93-3.29,5.86-6.99,11.42-10.18,17.28,0-.21,0-.41-.1-.41,0,.21-.41.1-.51.1-.21.21.1.41-.1.62-.31-.21-.21-.1-.51,0v-.21c-.21,0-.21-.1-.31-.1,0,.72-.93.72-1.23.51-3.09.93-7.3,2.26-10.29,3.91.21.31.62-.31.82,0-.72.51-1.75,1.23-2.57,1.34v1.65c-.21.1-.31.21-.51.31,0,.21.31.51-.1.51,0,.41.41.31.41.72-.41.41,0,.82-.21,1.34.1.41.62.41.51,1.03.21,0,.41,0,.41.21s-.31.1-.31.31c.21,0,.41,0,.41.21-.1.21-.31.31-.21.62.41.1.31-.31.62-.31.1.62.41.93.1,1.44.41.51,1.03.1,1.75.1,0-.31-.31-.21-.21-.62,1.85-1.65,5.14-2.47,7.3-3.19-2.16,4.42-4.53,8.74-6.38,13.37-.62,1.03-1.34,1.95-1.44,3.39-1.65,2.57-2.67,5.76-4.01,8.64.31.72-.31,1.23-.1,1.95-.21-.1-.1.21-.31.21C.21,73.75,0,74.78,0,75.5c1.54,2.98,1.95,7.51,5.66,8.02.21-.21.51-.21.82-.1,1.23-1.03,3.5-1.34,4.73-1.85.1-.31.1-.62.31-.72q.31.1.62.31c.31,0,.41-.51.93-.21-.1-.21-.62-.51-.1-.72.31,0,.1.41.41.41,1.44-.51,3.19-.93,4.94-1.75-.1-.1-.31-.1-.31-.21,2.67-.72,4.53-1.54,7.2-1.95.62-.41,1.34-.62,2.06-.41.1-.62.93-.72,1.44-.41.72-.72,1.95-.62,2.98-1.03.1.1.1.21.31.21.1-.51-.41-.31-.51-.51.21-.62.82-.51,1.44-.31.72-.51,1.44-.1,2.06-.31.1-.51-.62-.1-.72-.41,0-.31.62.1.51-.31,0-.21-.51.1-.31-.31h.31c0-.1,0-.21.21-.21,0,.1,0,.21-.21.21.31.31.62.51.93.21,0,.31.41.31.62.41.31-.1.62-.1.62-.51-.62.1-1.03-.1-1.23-.41.31-.1.31.21.51.21,0-.41.21-.31.82-.31,1.34-.31,2.57-1.23,4.53-.72,1.65-1.23,4.63-1.13,6.38-1.95-.21-.1-.72.1-.72-.1.21-.21.51-.1.82-.21.21.31,1.03.72,1.23.1-.31-.1-.62.31-.72,0,.82-.41,2.16-.41,3.09-1.03-.41.1-.51-.1-.72-.21-.1.31-.51.21-.41-.21.31-.1.21.21.41.21.1-1.03,1.34.1,1.54-.62-.1-.21-.62,0-.72-.21.51-.21,1.44-.62,2.16-.21.21-.82,1.23-.72,1.95-.93.1-.41-.51,0-.51-.31.21-.51.62-.72.82-1.23-.72-.1-1.44.31-1.95,0,.1-.51.72,0,.82-.41-.51,0-.31-.1-.21-.41-.72,0-1.54-.51-2.16-.1,0-.41-.82-.1-1.13-.21.1-.21-.21-.1-.21-.31,0-.51.31-.82.41-1.23-1.85-.31-4.11,1.13-5.35.21-3.09.93-6.69,1.03-9.36,2.16-7.82,1.34-16.05,4.01-23.97,6.48-.1.41-.1.93-.31,1.23-.62-1.44-2.37-.21-3.09.51,0-.31-.31-.21-.62-.21.1.72-.82.51-1.03.93.1-1.03.82-2.47,1.44-3.39.1-.31-.31-.21-.21-.51.31,0,.31-.1.62-.31.41-1.13.41-2.37,1.13-2.88.1-.41-.51-.1-.41-.41.51,0,1.23-.41.93-1.13.51-.31,1.03-1.23.62-1.85.41,0,.31-.72.82-.41.41-.82.41-1.65.72-2.47-.21-.31-.41.31-.51,0-.1-.51.51-.21.41-.72,0-.1-.31,0-.31-.21.31-.62.62-.93,1.34-.93.1-.51.51-.72.93-.93-.31-1.23.72-1.54.62-2.67-.62.31-.31-.93.1-1.03.21-1.03.41-2.26,1.65-2.37.31-1.13,1.13-1.65,1.34-2.78-.41-.21-.31-.93-.1-1.34.31,0-.31.41.1.41.21-.62.51-1.13.93-1.65-.1,0-.31,0-.31-.1.1-.21.1-.62.21-.82.21,0,.21.31.51.21.21-.31-.21-1.03.41-1.13-.1.31.1.41.31.51.1-.41-.41-.62-.1-.93.31.21.31.41.21.82.62-.1.82-.51.82-1.23.72-.72,1.23-1.85,2.37-1.44,0-.41.41-.1.62-.1.1-.21.21-.31.41-.41.1.1.21.1.41.1.31-.31,1.23-.21,1.13-.72,0,.21-.31,0-.31-.1.21-.21.31-.51.51-.72.21.1-.21.41.21.41.1-.51-.31-.62-.31-1.03.21,0,.21-.1.41-.1.1.41.82-.1,1.03.41-.41.31.21.41-.21.82.31.21.31-.21.72,0,.21-1.34,1.65.1,2.47-.41-.21-.21-.62-.21-.62-.62.21-.21.31.31.72,0,0,.31-.21.21,0,.41.31.1.41-.51.51-.21,0,.21-.1.21-.1.31.51,0,.72-.21,1.23-.41-.21-.41,0-.21.21-.41-.21,0-.21-.21-.21-.51-.51.1-.51.41-.82.1,0,.21,0,.41-.21.31,0-.21,0-.31.21-.31-.1-.51-.51.31-.72-.21.41-.62.93-.21,1.44-.51,0,.21-.1.21-.1.31.41,0,.41-.41.72-.51,0,.62-.1,1.13.41,1.54,0-.21-.21-.31-.21-.51.41-.1.51-.31.82-.21,0,.21-.31.21-.21.51.62.51.93-.31,1.65-.21,0-.21-.21-.41,0-.62.51.31,1.13-.41,1.75-.82-.51.62.62.31.41.93.41-.1.82-.21,1.13-.41-.1-.31.1-.41.1-.62-.21-.21-.41.1-.62-.1,0,.21-.1.31-.1.41.1,0,.1.21,0,.21v-.21c-.21,0-.21-.21-.21-.51-.41-.31-.62.31-.72-.1,1.65-.62,3.6-1.03,5.55-1.23-.31.31,0,.51-.21.93.51-.41,1.23.21,1.44-.41h-.72c0-.31,0-.62.1-.72.41.31.62-.31,1.13,0,.51-.72,2.37,0,2.67-1.13-.41-.31-.51.21-1.03.1-.31-.41-.51-.51-1.03-.62.21,0,.21-.21.51-.21.1.1.1.21.31.21.31,0,.41-.51.21-.72.31.1.21-.31.62-.21-.1-.1-.21-.51,0-.51s.21.62,0,.51c0,.31.72.21.72,0s-.51-.41-.1-.62c.31.1.31.62.72.62.21-.21.41-.41.82-.21.1-.41-.31-.62-.1-.82.31.31.21.1.51,0,.31,0,.21.62.51.31,0-.41.31-.51.51-.93-.41,0-.51.41-.72.21,0-.21,0-.41.1-.51-.41,0-.31-.51-.72-.31.1-.31-.41-.51-.1-.72.21.21.93.31.82-.1.1.21.62.31.62,0,0-.21-.62,0-.51-.31.1-.41,1.03,0,1.13-.51-.62,0-1.34,0-1.95-.31,0-.21.31-.1.21-.41-.21-.1-.31-.1-.62,0v-.31c-.72-.21-1.13.41-1.65,0-.21.21-.21.51-.41.72-.1-.1-.21-.31-.41-.1v-.41c-.82.21-1.34.31-1.95.31,0,.31-.1.41-.21.51-.51-.21-.72-.31-1.23-.31-.1.41.31.51.1.72-.93-.31-2.26-.51-3.09.1-.31-.41-.93.1-1.03,0,0-.1.1-.1.1-.21-.72,0-1.34,0-1.85.41-.1-.1-.21-.21-.21-.31.1-.1.51,0,.51-.31-.31-.21-.72.1-.93.21-.1.41.31.72-.1.82-.1,0-.21-.1-.21-.31-.41.21-.31,0-.62-.1-.1.1-.1.41-.1.72-.31-.31-.31.21-.51.21-.31-.21-.62-.31-.93-.1.1-.21.41-.51.1-.72-.21.31-.82.31-.93.62,0-.51-.41,0-.62-.31,0,.31.41.62,0,.72.1-.41-.31-.31-.31-.62-.62,0-.72.62-1.03.93-.41,0-.41.21-.62-.1-.1.1-.1.41-.31.41-.82-.41-1.65,1.03-2.26.21-.41.31.41.41.1.72-.21-.1-.41,0-.51-.21.1-.82.62-.72.93-.82-.1-.21-.51-.1-.51-.41.62-.51.41-1.85,1.44-1.95.21-1.54,1.65-1.85,1.85-3.5.51-.51,1.13-1.13,1.23-2.06h.31c.62-1.85,1.85-3.19,3.29-4.42.1-1.03-.41-1.85-.82-2.67-.41-2.16-1.44-3.7-2.78-4.94,4.63-.51,11.31-1.65,15.63-2.16.1,0,.51.21.72-.1.21,0,.21.21.51.21,3.5-.41,7.51-.31,11.73-.62.21-.21.41-.51.62-.82.62-.31.51.51,1.23.31-.21.21,0,.41,0,.62.31-.1.62-.1.93,0-.1-.21,0-.51-.21-.62,0,.21-.51.51-.62.21.51-.51.93-.62,1.34-.51,0,.31-.41.31-.31.72.31.21.41,0,.82,0v-.41c-.1-.21-.51,0-.41-.41.51-.1.41.21.62.41.41-.51,1.03,0,1.75-.21v.41c.41,0,.62-.31,1.03-.1-.21-.93.93.21.93-.62-.31-.1-.93.1-1.03-.41.31-.31.72.1,1.03-.1,0,.21-.1.41.1.41.93-.51,2.37-.21,3.6-.21-.41-.51.62-1.44.21-1.95.1,0,.1.1.21.1ZM73.34,6.17v-.21c.21,0,.31,0,.31.21h-.31ZM72,6.58c-.1.21-.51.1-.41-.21.31-.1.21.21.41.21ZM72.62,6.89c-.31,0-.1-.31-.51-.1-.1-.31.21-.21.21-.41.41,0,.62.31.93.1,0,.51-.31.21-.62.21v.21q.1,0,.1.1c.1,0,.21,0,.21.21h-.21v-.21q-.1,0-.1-.1ZM67.17,7.51c0,.1-.1.1-.21.1,0-.1.1-.1.21-.1ZM58.32,7.71c0,.1-.1.1-.21.1,0-.1.1-.1.21-.1ZM45.57,29.11c-.31.1-.21-.21-.21-.41.21,0,.21.21.21.41ZM49.58,29.11c0-.1.21-.21.21-.31.1,0,.1.21.1.31h-.31ZM47.42,29.62v-.21h.21v.21h-.21ZM49.89,29.73c.1-.1.62-.31.72-.1-.1.41-.51.1-.72.1-.1.21-.21.21-.31.1v-.21c.1,0,.21.1.31.1ZM46.18,29.62c0,.1-.1.1-.21.1,0-.1.1-.1.21-.1ZM49.06,30.03c.1-.1,0-.41.31-.31,0,.21-.1.31-.31.31ZM47.62,30.14c0-.1.1-.1.1-.21.1,0,.1.1.21.1,0,.1-.1.1-.1.21-.1,0-.1-.1-.21-.1ZM48.55,30.24c-.21.1-.21-.1-.21-.31.1,0,.21.1.21.31ZM48.55,31.06c0-.1.21-.21.21-.31.31,0,.51.21.51.51-.41,0-.31-.41-.72-.21ZM49.78,30.96c0,.21-.1,0-.21,0,0-.1.21-.1.21,0ZM34.05,31.17v-.21h.21v.21h-.21ZM49.78,31.37c0-.31.41-.31.62-.21,0,.21-.21.21-.1.51-.21,0-.31-.21-.51-.31ZM47.73,31.78c-.21-.41.51,0,.51-.31.21.21.21.51,0,.72-.1-.21-.31-.31-.51-.41ZM42.69,31.99c.1-.31.31-.21.41,0,0,.31-.31,0-.41,0ZM49.06,32.61c0-.21.1-.31.1-.41.21,0,.21.21.21.41h-.31ZM42.89,32.61v-.21c.21,0,.21.1.21.31-.1,0-.1-.1-.21-.1ZM47.93,32.91v-.21h.21v.21h-.21ZM45.26,34.25c.1-.31.41,0,.51-.41.31.31-.1.72-.41.72,0-.1,0-.31-.1-.31ZM46.29,34.66c-.21-.1-.31-.1-.31-.41.31,0,.31.1.31.41ZM43.92,34.77c-.21,0-.21.41-.51.31,0-.21-.21-.21-.1-.51.31.21.51-.21.62.21.41,0,0,.41,0,0ZM44.64,34.87c-.21-.1,0-.21,0-.31.21.1,0,.21,0,.31ZM45.98,34.56c0,.1-.1.1-.21.1,0-.1.1-.1.21-.1ZM45.36,35.28c-.21,0-.21-.21-.21-.41.21,0,.21.21.21.41ZM14.19,37.23c0-.1.1-.21.31-.21,0,.1-.1.21-.31.21ZM36.51,37.44c.1-.31.51-.21.82-.31,0,.31-.51.51-.82.31ZM34.35,37.75c.21-.21.62-.1.93-.31.31.41-.82.21-.51.93-.31-.1-.41-.31-.41-.62ZM30.65,39.19v-.21h.21v.21h-.21ZM33.12,39.39c-.1,0-.1-.21-.1-.41.41,0,0,.21.1.41ZM13.58,39.6v-.31c.31-.1.31.51,0,.31ZM12.86,40.32c0,.1-.1.1-.21.1,0-.1.1-.1.21-.1ZM22.53,41.14v-.31c.31-.1.31.51,0,.31ZM2.57,41.76c0-.1.21-.21.21-.31.21,0,0,.41-.21.31ZM11.01,44.64c0-.31,0-.41.31-.41,0,.31,0,.41-.31.41ZM17.49,51.12c.1-.1.1-.41.41-.41,0,.31-.21.41-.41.41ZM15.33,55.13c0-.1.21-.21.21-.31.41.1,0,.62-.21.31ZM15.33,56.16c-.21,0-.1-.41,0-.51.31.1-.1.31,0,.51ZM9.57,68.19c-.1-.31.1-.41.1-.62.21,0,.21.1.31.1,0,.31-.1.51-.41.51ZM50.19,67.78v-.21h.51c.1.31-.31.21-.51.21ZM8.43,71.28c0-.31,0-.41.31-.41,0,.31,0,.41-.31.41ZM9.36,72.93c0,.1-.1.1-.21.1,0-.1.1-.1.21-.1ZM33.12,73.34c.1-.41.93,0,.93.41-.41-.1-.51-.41-.93-.41-.21.31-.82.62-1.13.41,0-.51.72-.31,1.13-.41ZM14.61,79.82c0-.1.1-.21.31-.21,0,.1-.1.21-.31.21,0,.21-.51.21-.31-.1.1,0,.1.1.31.1ZM74.37,2.06c.1,0,.21,0,.21-.1-.1,0-.21,0-.21.1ZM74.98,3.5c.1,0,.21.21.21,0,0-.1-.21-.1-.21,0ZM74.88,4.63c.1,0,.21,0,.21-.1-.1,0-.21,0-.21.1ZM74.88,5.35c-.21,0-.41,0-.31.21.21,0,.31-.1.31-.21ZM74.16,5.55c.1,0,.21,0,.21-.1-.1,0-.21,0-.21.1ZM73.85,5.66c-.1.21.31.51.31.21-.1,0-.21-.21-.31-.21ZM69.53,8.43c0,.1-.1.21-.1.41.31.1.41-.41.1-.41ZM51.22,28.59c-.21-.51-.41-.31-.93-.31-.1.41.51.21.62.51,0-.1.1-.21.31-.21ZM36.21,29.83c-.31,0-.31.21-.41.31.31,0,.41,0,.41-.31ZM52.56,30.55v.21h.21v-.21h-.21ZM31.78,30.65v.31c.31.21.31-.41,0-.31ZM50.81,30.96c.1,0,.21,0,.21-.1-.1,0-.21,0-.21.1ZM30.55,31.06c-.31-.21-.93,0-1.03.31.41,0,.93.1,1.03-.31ZM49.99,32.71c.1,0,.21,0,.21-.1-.1,0-.21,0-.21.1ZM50.09,33.02c0,.21,0,.41.21.31,0-.21-.1-.31-.21-.31ZM49.78,34.25q0,.1-.1.1v.21h.21q0-.1.1-.1v-.21h-.21ZM50.4,34.25v.21h.31c0-.21-.1-.21-.31-.21ZM48.45,34.35c0,.21,0,.31.1.41.21,0,.41,0,.41-.31q-.31.1-.51-.1ZM41.97,36.31v.21h.21v-.21h-.21ZM42.48,36.62c-.1.31.31.41.41.21-.21,0-.31-.1-.41-.21ZM40.42,36.72v.62c.41.1.51-.21.72,0,0-.62-.51-.1-.72-.62ZM32.81,38.37v.21h.21v-.21h-.21ZM27.67,39.91v.21h.31c0-.21-.1-.21-.31-.21ZM27.67,40.53v.21q0,.1.1.1c0-.1.21-.21.21-.31h-.31ZM20.16,46.29v.21h.21v-.21h-.21ZM2.57,47.21q-.1,0-.1-.1h-.21c-.21.31.31.31.31.1ZM16.15,54.72c.1,0,.51-.41.21-.51,0,.21-.31.21-.21.51ZM49.37,62.02c-.41,0-.62,0-.72.31.31-.1.51-.21.72-.31ZM51.63,68.61c.21.31.51.1.72-.1-.1-.1-.72-.21-.72.1ZM50.3,69.43c-.21.31.31.31.31.1-.1,0-.1-.1-.31-.1ZM49.06,70.46c.1,0,.21,0,.21-.1-.1,0-.21,0-.21.1ZM45.77,70.97c.1,0,.21,0,.21-.1-.1,0-.21,0-.21.1ZM39.7,71.9c0,.1-.1.1-.1.21.21,0,.31,0,.31-.21h-.21ZM37.54,72.72c-.31-.1-.31.1-.51.1-.1.31.72.31.51-.1Z"/>
      <g class="h">
        <g>
          <path class="g" d="M7.17,9.5c2.64.18,65.74-4.83,65.74-4.83l-34.73,2.26L3.26,77.74l48.26-11.98"/>
          <path class="g" d="M3.26,43.13l48.26-11.35"/>
        </g>
      </g>
    </g>
  </g>
</svg>